<svg id="layer_1" data-name="layer 1" xmlns="http://www.w3.org/2000/svg" xmlns:xlink="http://www.w3.org/1999/xlink" viewBox="0 0 456.13 298.17"><defs><style>.cls-1{fill:none;}.cls-2{clip-path:url(#clip-path);}.cls-3{fill:#006eff;}.cls-4{fill:#000f1f;}.cls-5{fill:#d2dbeb;}.cls-6{fill:#fff;}.cls-7{fill:#86bff1;}.cls-8{fill:#194767;}.cls-9{fill:#3ec6c9;}.cls-10{fill:#2d5dea;}.cls-11{fill:#ffcda9;}.cls-12{fill:#14afff;}.cls-13{fill:#1d2226;}.cls-14{fill:#24e9ff;}.cls-15{fill:#131637;}.cls-16{fill:#ffd11c;}.cls-17{fill:#ffa81c;}</style><clipPath id="clip-path"><rect class="cls-1" x="-330.59" y="-100.34" width="800" height="500"/></clipPath></defs><title>Dashboard</title><g class="cls-2"><rect class="cls-3" x="174.39" y="59.93" width="246.06" height="150.31"/><rect class="cls-4" x="169.56" y="49.52" width="255.73" height="10.69"/><path class="cls-5" d="M193.87,109.32h78.66V78.72H193.87ZM266.59,79.2h5.46v5.53h-5.46Zm0,6h5.46v5.55h-5.46Zm0,6h5.46v5.55h-5.46Zm0,6h5.46v5.55h-5.46Zm0,6h5.46v5.55h-5.46Zm-5.92-24.1h5.44v5.53h-5.44Zm0,6h5.44v5.55h-5.44Zm0,6h5.44v5.55h-5.44Zm0,6h5.44v5.55h-5.44Zm0,6h5.44v5.55h-5.44Zm-6-24.1h5.55v5.53h-5.55Zm0,6h5.55v5.55h-5.55Zm0,6h5.55v5.55h-5.55Zm0,6h5.55v5.55h-5.55Zm0,6h5.55v5.55h-5.55Zm-6-24.1h5.55v5.53h-5.55Zm0,6h5.55v5.55h-5.55Zm0,6h5.55v5.55h-5.55Zm0,6h5.55v5.55h-5.55Zm0,6h5.55v5.55h-5.55Zm-6-24.1h5.55v5.53h-5.55Zm0,6h5.55v5.55h-5.55Zm0,6h5.55v5.55h-5.55Zm0,6h5.55v5.55h-5.55Zm0,6h5.55v5.55h-5.55Zm-6-24.1h5.55v5.53h-5.55Zm0,6h5.55v5.55h-5.55Zm0,6h5.55v5.55h-5.55Zm0,6h5.55v5.55h-5.55Zm0,6h5.55v5.55h-5.55Zm-6-24.1h5.56v5.53h-5.56Zm0,6h5.56v5.55h-5.56Zm0,6h5.56v5.55h-5.56Zm0,6h5.56v5.55h-5.56Zm0,6h5.56v5.55h-5.56Zm-6-24.1h5.56V84h-5.56Zm0,6h5.56v5.55h-5.56Zm0,6h5.56v5.55h-5.56Zm0,6h5.56v5.55h-5.56Zm0,6h5.56v5.55h-5.56Zm-6-24.1H224v5.53h-5.56Zm0,6H224V90h-5.56Zm0,6H224V96h-5.56Zm0,6H224V102h-5.56Zm0,6H224V108h-5.56Zm-6-24.1H218v5.53h-5.56Zm0,6H218v5.55h-5.56Zm0,6H218v5.55h-5.56Zm0,6H218v5.55h-5.56Zm0,6H218v5.55h-5.56Zm-6-24.1H212v5.53h-5.55Zm0,6H212v5.55h-5.55Zm0,6H212v5.55h-5.55Zm0,6H212v5.55h-5.55Zm0,6H212v5.55h-5.55Zm-6-24.1h5.55v5.53h-5.55Zm0,6h5.55v5.55h-5.55Zm0,6h5.55v5.55h-5.55Zm0,6h5.55v5.55h-5.55Zm0,6h5.55v5.55h-5.55Zm-6-24.1h5.55v5.53h-5.55Zm0,6h5.55v5.55h-5.55Zm0,6h5.55v5.55h-5.55Zm0,6h5.55v5.55h-5.55Zm0,6h5.55v5.55h-5.55Z"/><polygon class="cls-6" points="248.43 85.03 236.25 96.96 224.19 96.96 218.29 100.03 206.23 96.96 194.16 102.99 194.16 108.86 272.35 108.86 272.35 78.94 260.36 85.03 248.43 85.03"/><polygon class="cls-7" points="254.46 97.09 248.43 97.09 242.28 103.12 224.32 103.12 218.29 106.69 206.23 103.12 194.49 108.86 272.23 108.86 272.23 102.99 260.49 96.96 254.46 97.09"/><rect class="cls-5" x="277.78" y="78.72" width="7.45" height="2.24"/><rect class="cls-5" x="288.95" y="78.72" width="16.32" height="2.24"/><rect class="cls-5" x="307.17" y="78.72" width="3.39" height="2.24"/><rect class="cls-5" x="299.33" y="82.26" width="11.23" height="2.24"/><rect class="cls-5" x="277.78" y="82.26" width="2.68" height="2.24"/><rect class="cls-5" x="281.85" y="82.26" width="14.84" height="2.24"/><rect class="cls-5" x="277.78" y="85.81" width="8.94" height="2.24"/><rect class="cls-5" x="288.52" y="85.81" width="22.04" height="2.24"/><rect class="cls-5" x="277.78" y="89.36" width="22.4" height="2.24"/><rect class="cls-5" x="304.21" y="89.36" width="6.36" height="2.24"/><rect class="cls-5" x="277.78" y="92.9" width="3.53" height="2.24"/><rect class="cls-5" x="295.41" y="92.9" width="15.15" height="2.24"/><rect class="cls-5" x="282.9" y="92.9" width="10.39" height="2.24"/><rect class="cls-5" x="277.78" y="96.45" width="10.21" height="2.24"/><rect class="cls-5" x="289.47" y="96.45" width="16.96" height="2.24"/><rect class="cls-5" x="277.78" y="99.99" width="18.69" height="2.24"/><rect class="cls-5" x="298.38" y="99.99" width="12.19" height="2.24"/><rect class="cls-5" x="277.78" y="103.54" width="7.67" height="2.24"/><rect class="cls-5" x="289.47" y="103.54" width="21.09" height="2.24"/><rect class="cls-5" x="292.44" y="107.08" width="9.64" height="2.24"/><rect class="cls-5" x="277.78" y="107.08" width="12.86" height="2.24"/><rect class="cls-5" x="303.99" y="107.08" width="6.57" height="2.24"/><path class="cls-8" d="M332,83.06v4.19a5,5,0,1,1-5,5h-4.2a9.23,9.23,0,0,0,7.08,9L332,105l2.15-3.72A9.23,9.23,0,0,0,332,83.06Z"/><path class="cls-7" d="M322.81,92.29H327a5,5,0,0,1,5-5V83.06A9.23,9.23,0,0,0,322.81,92.29Z"/><path class="cls-7" d="M332,83.06v4.2a5,5,0,0,1,5,5h4.2A9.24,9.24,0,0,0,332,83.06Z"/><path class="cls-7" d="M337.08,92.28a5,5,0,0,1-2.38,4.29l-.11.06a5,5,0,0,1-2.53.68h0a4.92,4.92,0,0,1-2-.42l-1.58,3.89a10,10,0,0,0,1.43.47L332,105l.26-.45,1.89-3.27a9.33,9.33,0,0,0,3.37-1.59h0l.32-.26h0l.3-.27h0l.29-.28h0a9.52,9.52,0,0,0,1.11-1.34h0l.19-.29L340,97c.06-.09.11-.18.16-.27l.08-.14a.13.13,0,0,1,.05-.1h0a9.23,9.23,0,0,0,1-4.25Z"/><path class="cls-7" d="M335.61,88.72a5,5,0,0,1,.05,7.07l-.05,0,3,3a9.21,9.21,0,0,0,0-13Z"/><path class="cls-8" d="M361.08,83.06v4.19a5,5,0,1,1-5,5h-4.19a9.23,9.23,0,0,0,7.08,9l2.15,3.72,2.14-3.72A9.23,9.23,0,0,0,361.12,83Z"/><path class="cls-8" d="M351.85,92.29H356a5,5,0,0,1,5-5V83.06A9.22,9.22,0,0,0,351.85,92.29Z"/><path class="cls-9" d="M361.08,83.06v4.2a5,5,0,0,1,5,5h4.19A9.23,9.23,0,0,0,361.08,83.06Z"/><path class="cls-8" d="M366.12,92.28a5,5,0,0,1-2.39,4.29l-.1.06a5,5,0,0,1-2.54.68h0a4.92,4.92,0,0,1-2-.42l-1.58,3.89a10,10,0,0,0,1.43.47l2.15,3.72.26-.45,1.88-3.27a9.29,9.29,0,0,0,3.38-1.59h0l.32-.26h0l.31-.27h0l.3-.28h0a8.81,8.81,0,0,0,1.1-1.34h0a2.9,2.9,0,0,1,.19-.29L369,97l.16-.27.07-.14.06-.1h0a9.23,9.23,0,0,0,1-4.25Z"/><path class="cls-8" d="M364.64,88.72a5,5,0,0,1,.05,7.07l-.05,0,3,3a9.23,9.23,0,0,0,0-13Z"/><path class="cls-8" d="M390.11,83.06v4.19a5,5,0,1,1-5,5h-4.2a9.23,9.23,0,0,0,7.09,9l2.14,3.72,2.15-3.72A9.23,9.23,0,0,0,390.14,83Z"/><path class="cls-8" d="M380.88,92.29h4.2a5,5,0,0,1,5-5V83.06A9.23,9.23,0,0,0,380.88,92.29Z"/><path class="cls-5" d="M390.12,83.06v4.2a5,5,0,0,1,5,5h4.2A9.24,9.24,0,0,0,390.12,83.06Z"/><path class="cls-8" d="M395.16,92.28a5,5,0,0,1-2.39,4.29l-.1.06a5,5,0,0,1-2.54.68h0a4.92,4.92,0,0,1-2-.42l-1.59,3.89a10.53,10.53,0,0,0,1.44.47l2.14,3.72.26-.45,1.89-3.27a9.46,9.46,0,0,0,3.38-1.59h0l.33-.26h0l.31-.27h0a3.83,3.83,0,0,0,.29-.28h0a8.81,8.81,0,0,0,1.1-1.34h0l.19-.29L398,97l.15-.27.08-.14.06-.1h0a9.23,9.23,0,0,0,1-4.25Z"/><path class="cls-5" d="M393.68,88.72a5,5,0,0,1,.05,7.07l-.05,0,3,3a9.23,9.23,0,0,0,0-13Z"/><rect class="cls-5" x="319.41" y="113.25" width="83.35" height="15.32"/><rect class="cls-6" x="323.05" y="116.24" width="17.29" height="2.24"/><rect class="cls-6" x="348.95" y="116.24" width="37.87" height="2.24"/><rect class="cls-6" x="391.24" y="116.24" width="7.87" height="2.24"/><rect class="cls-6" x="373.05" y="119.79" width="26.06" height="2.24"/><rect class="cls-6" x="323.05" y="119.79" width="6.23" height="2.24"/><rect class="cls-6" x="332.48" y="119.79" width="34.42" height="2.24"/><rect class="cls-6" x="323.05" y="123.33" width="20.74" height="2.24"/><rect class="cls-6" x="347.97" y="123.33" width="51.14" height="2.24"/><rect class="cls-5" x="323.05" y="175.45" width="17.29" height="2.24"/><rect class="cls-5" x="348.95" y="175.45" width="37.87" height="2.24"/><rect class="cls-5" x="391.24" y="175.45" width="7.87" height="2.24"/><rect class="cls-5" x="373.05" y="178.99" width="26.06" height="2.24"/><rect class="cls-5" x="323.05" y="178.99" width="6.23" height="2.24"/><rect class="cls-5" x="332.48" y="178.99" width="34.42" height="2.24"/><rect class="cls-5" x="323.05" y="182.54" width="20.74" height="2.24"/><rect class="cls-5" x="347.97" y="182.54" width="51.14" height="2.24"/><rect class="cls-5" x="224.9" y="137.87" width="17.29" height="2.24"/><rect class="cls-5" x="250.8" y="137.87" width="37.87" height="2.24"/><rect class="cls-5" x="293.09" y="137.87" width="7.87" height="2.24"/><rect class="cls-5" x="274.89" y="141.42" width="26.06" height="2.24"/><rect class="cls-5" x="224.9" y="141.42" width="6.23" height="2.24"/><rect class="cls-5" x="234.32" y="141.42" width="34.42" height="2.24"/><rect class="cls-5" x="224.9" y="144.96" width="20.74" height="2.24"/><rect class="cls-5" x="249.81" y="144.96" width="51.14" height="2.24"/><rect class="cls-5" x="317.73" y="137.87" width="9.37" height="2.24"/><rect class="cls-5" x="328.37" y="137.87" width="20.52" height="2.24"/><rect class="cls-5" x="351.29" y="137.87" width="4.26" height="2.24"/><rect class="cls-5" x="317.73" y="141.42" width="3.37" height="2.24"/><rect class="cls-5" x="322.84" y="141.42" width="18.65" height="2.24"/><rect class="cls-5" x="317.73" y="144.96" width="11.23" height="2.24"/><path class="cls-8" d="M229.24,119.26v6.27l-6,2a6.3,6.3,0,1,0,6-8.26Z"/><path class="cls-7" d="M251.7,119.26h-.13v6.39h-6.18a6.31,6.31,0,1,0,6.31-6.4Z"/><path class="cls-9" d="M274.16,119.26H274v6.3l-5.48-2.84a6.25,6.25,0,0,0-.71,2.84,6.32,6.32,0,1,0,6.33-6.31h0Z"/><path class="cls-5" d="M296.61,119.26h-.46v6L293,120.4a6.29,6.29,0,1,0,3.6-1.14Z"/><rect class="cls-5" x="194.35" y="113.25" width="18.34" height="3.05"/><rect class="cls-5" x="194.35" y="130.37" width="18.34" height="3.05"/><rect class="cls-5" x="194.35" y="138.93" width="18.34" height="3.05"/><rect class="cls-5" x="194.35" y="147.49" width="18.34" height="3.05"/><rect class="cls-5" x="194.35" y="156.05" width="18.34" height="3.05"/><rect class="cls-5" x="194.35" y="164.61" width="18.34" height="3.05"/><rect class="cls-5" x="194.35" y="173.17" width="18.34" height="3.05"/><rect class="cls-5" x="194.35" y="181.73" width="18.34" height="3.05"/><rect class="cls-5" x="243" y="170.74" width="6.12" height="14.04"/><rect class="cls-7" x="254.24" y="165.26" width="6.12" height="19.52"/><rect class="cls-9" x="265.49" y="160.67" width="6.12" height="24.11"/><rect class="cls-8" x="276.73" y="156.53" width="6.12" height="28.25"/><path class="cls-10" d="M383.77,147.47a18.41,18.41,0,0,0-12.88,5.25l-1.43,1.4a18.48,18.48,0,0,1-12.93,5.27,18.44,18.44,0,0,0-8.52,2.09,5.61,5.61,0,0,1-4,.46l-4-1h-.12a13.75,13.75,0,0,0-14.36,5.48L322,171.3h78.2V141.37l-8.06,4.1A18.56,18.56,0,0,1,383.77,147.47Z"/><path class="cls-7" d="M386.07,159.42l-5.41.06a10.63,10.63,0,0,0-7.33,3,10.63,10.63,0,0,1-7.44,3H349.32a45,45,0,0,0-12,1.63l-14.86,4.12h77.73v-17.5l-9.6,4.63A10.71,10.71,0,0,1,386.07,159.42Z"/><path class="cls-6" d="M417.39,54.72a1.7,1.7,0,1,0,1.69,1.71v0a1.69,1.69,0,0,0-1.69-1.69Z"/><path class="cls-6" d="M410.6,54.72a1.7,1.7,0,1,0,1.7,1.7h0a1.69,1.69,0,0,0-1.69-1.69Z"/><polygon class="cls-5" points="319.12 290.58 316.73 290.58 293.66 174.86 296.04 174.86 319.12 290.58"/><polygon class="cls-5" points="288.35 290.58 285.97 290.58 262.89 174.86 265.28 174.86 288.35 290.58"/><rect class="cls-5" x="285.46" y="277.32" width="29.42" height="1.96"/><rect class="cls-5" x="281.76" y="258.57" width="29.42" height="1.96"/><rect class="cls-5" x="278.06" y="239.84" width="29.42" height="1.96"/><rect class="cls-5" x="274.36" y="221.1" width="29.42" height="1.96"/><rect class="cls-5" x="270.66" y="202.36" width="29.42" height="1.96"/><rect class="cls-5" x="266.96" y="183.62" width="29.42" height="1.96"/><rect class="cls-5" x="281.51" y="166.24" width="26.28" height="8.62"/><rect class="cls-6" x="231.64" y="166.24" width="49.86" height="8.62"/><polygon class="cls-6" points="217.68 290.58 220.06 290.58 243.14 174.86 240.75 174.86 217.68 290.58"/><polygon class="cls-6" points="248.44 290.58 250.83 290.58 273.9 174.86 271.52 174.86 248.44 290.58"/><rect class="cls-6" x="221.91" y="277.31" width="29.42" height="1.96"/><rect class="cls-6" x="225.61" y="258.58" width="29.42" height="1.96"/><rect class="cls-6" x="229.31" y="239.84" width="29.42" height="1.96"/><rect class="cls-6" x="233.01" y="221.1" width="29.42" height="1.96"/><rect class="cls-6" x="236.71" y="202.36" width="29.42" height="1.96"/><rect class="cls-6" x="240.41" y="183.63" width="29.42" height="1.96"/><path class="cls-11" d="M147,115.1c-.29-.25-1.64.74-1.79,1.09-.1.94.45,1,.22,1.87a7.76,7.76,0,0,1,1.31-2C147.06,115.71,147.48,115.46,147,115.1Z"/><path class="cls-11" d="M145.88,110a2.06,2.06,0,0,0-.9-.9.65.65,0,0,0-.67.25c-.48-.26-.9,1-1,1-.43-.37-1.06.1-1,2.07,0,.12-.88,5-1,6.57a19.8,19.8,0,0,0,4-.19,19.54,19.54,0,0,0,.49-2.75c.14-1.12.16-3.64.16-3.82A13.86,13.86,0,0,0,145.88,110Z"/><path class="cls-11" d="M145.36,118.44a16.24,16.24,0,0,1-4-.16c-1.1,8.23-1.53,29,1.5,30.36,2.77,1.24,4.31-.43,4.78-1.85a3,3,0,0,0,.16-.9C147.75,141.11,144.59,123.43,145.36,118.44Z"/><path class="cls-11" d="M149,145.3c-5.36-6.63-8.08-.52-7.1,2,2.57,6.67,12.78,23.76,16.38,22.79,1.56-.42,9-5.87,8.51-6.53C164.23,159.93,153.33,150.72,149,145.3Z"/><path class="cls-12" d="M159.25,154.39a124.63,124.63,0,0,1-9.51-9.72,14.57,14.57,0,0,0-1.12-1.24c-.19-2.05-.54-4.81-.91-7.71-.8-6.34-1.81-14.24-1.36-17.13l-6-.44c-1,7.24-1.48,24.4.62,29.59,2.11,5.43,11.57,22.25,16.63,22.53,8.4.46,11.8-6,11.58-6.27C165.93,159.73,162.85,157.84,159.25,154.39Z"/><path class="cls-4" d="M149.7,282.48l-3.54.41a11.5,11.5,0,0,1,0,1.66c-.13,1.63-8.5,1-8.5,4.15,0,1.7,5,1.75,6.57,1.75,6.84,0,8.13-2.28,8.13-2.92a6.05,6.05,0,0,0-1.8-4C149.92,282.73,149.7,282.48,149.7,282.48Z"/><path class="cls-11" d="M145.52,283.12a2.86,2.86,0,0,1,.4,1.85,6.69,6.69,0,0,0,2.7.32c.75-.09,1.93-1.78,1.93-1.78-.44-.9-1.25-2.15-1.25-2.15Z"/><path class="cls-13" d="M178.46,206.85c-6.7,1.26-40.62,21.69-54,31.94-5.68,4.37-2.47,9.71,4.27,8.93,17.48-2,45.09-6.78,55.58-16.21C201,216.52,182,206.17,178.46,206.85Z"/><path class="cls-13" d="M122.4,248.38C134.93,267.81,145.66,284,145.66,284a3.78,3.78,0,0,1,4.16-2s-7.75-18.53-15.58-37.3C129.08,232.36,117.29,240.46,122.4,248.38Z"/><path class="cls-4" d="M167.64,280.86l-3.55.4a11.64,11.64,0,0,1,0,1.67c-.13,1.62-9,3.73-9,6.86,0,1.7,7.94.21,9.41-.2,4.86-1.33,5.73-3,5.73-3.68a6.09,6.09,0,0,0-1.79-4C167.86,281.1,167.64,280.86,167.64,280.86Z"/><path class="cls-11" d="M163.45,281.49a2.82,2.82,0,0,1,.41,1.86,6.64,6.64,0,0,0,2.69.32c.76-.09,1.94-1.79,1.94-1.79-.44-.89-1.26-2.14-1.26-2.14Z"/><path class="cls-13" d="M140.34,246.76c12.53,19.42,23.26,35.61,23.26,35.61a3.79,3.79,0,0,1,4.16-2s-7.76-18.52-15.58-37.29C147,230.74,135.22,238.84,140.34,246.76Z"/><path class="cls-12" d="M181.93,205c-7,2.88-13.84,5.85-21.07,8a47.28,47.28,0,0,1-13.14,2.15c1.78,6.44.68,7.81-1.86,10.39,4.06,6.49,8.86,7.27,12.86,7.4,10.55.32,33-13.46,33.65-13.7A155,155,0,0,0,186.61,203C185.11,203.7,183.54,204.35,181.93,205Z"/><path class="cls-11" d="M145.12,157.3c.13.41,2.36,4.5,2,7.12,1,2.07,7.08.39,7.72-3.78-1-.86-3.13-6.3-3.4-8.39C151.09,152.76,146.68,157.11,145.12,157.3Z"/><path class="cls-11" d="M150.1,151c-.62-3-3.11-5-6.11-4.42-2.8.58-5.28,1.95-5.16,4.72,0,1,2.78,9.25,7.6,9.27,2,0,4.77-4.24,4.31-6.48C150.74,154,150.1,151,150.1,151Z"/><path class="cls-14" d="M161.45,160.47c-1.64.09-6.56.17-6.56.17s-.58,1.46-3.22,2.82a8.44,8.44,0,0,1-4.52.92,62,62,0,0,0-5.69,3.85c-3.17,3.14-2.78,4.66-1.68,9.65.51,2.33,10.08,37.62,6.48,47.36.28.27,3.69,4.5,8.82,4.37l-1.54-10.31,3.91,10.14c11.88-.83,19.34-7.51,28-11.36l-2.7-13.34,6,11.9c.85-.35,1.62-.65,2.29-.9-5.57-20-19.54-48.4-20-49.24C168.92,163,166.39,160.23,161.45,160.47Z"/><path class="cls-15" d="M153.09,153.23c1.32-4.2.34-9.69-4.27-11.61-5.23-2.18-11.57,3.08-12.25,8-.51,3.67-2.46,1.76-2.56.85.17,2.3,1.62,3.94,5.75,2.45.87-.31-1.74,1.36-1.74,1.36s7.09,8.09,13.42,3.88a11.15,11.15,0,0,0,3.12-3.77S152.41,155.4,153.09,153.23Z"/><path class="cls-4" d="M252.82,161.24l-3.12-1.74s-.67,1-1.21,1.65c-1.06,1.25-6.1,2.15-6.1,3.92,0,.89,1.88,1.7,3.41,1.76a10.55,10.55,0,0,0,3.7-.51c.9-.3,3-1.14,3.29-1.69a2.55,2.55,0,0,0,.12-2.06C253.07,161.58,252.82,161.24,252.82,161.24Z"/><path class="cls-11" d="M248.8,159.4a1.53,1.53,0,0,1-.31,1.75,5.11,5.11,0,0,0,1.81,1.74c.67.37,2.61-.32,2.61-.32a13,13,0,0,0,.08-2.42Z"/><path class="cls-13" d="M240.89,60.55c-.3,2.15-8,30.6-5.77,57.39C237,141,248.84,160.1,248.84,160.1c0,.16,3.07,1.81,4.6.13,0-4-5.47-41.73-5.35-42.15,3.7-12.83,12.25-35.06,13.71-36.21V62.26C254.29,62.75,243.39,61.64,240.89,60.55Z"/><path class="cls-11" d="M189.77,77.64c-.43-.06-.89-.26-.9.33,0,.38,1.55.9,1.92.81.83-.47.55-1,1.39-1.27A8.11,8.11,0,0,1,189.77,77.64Z"/><path class="cls-11" d="M192.81,77.24a19.5,19.5,0,0,0-2.52,1.22c-1,.54-3,2-3.19,2.11a13.34,13.34,0,0,0-1.74,1.33,2.16,2.16,0,0,0-.2,1.25.66.66,0,0,0,.6.4c.07.54,1.38.11,1.37.25-.06.56.69.8,2.28-.38.09-.07,4.55-2.21,5.92-3A20.36,20.36,0,0,0,192.81,77.24Z"/><path class="cls-11" d="M214.18,58.91a3.09,3.09,0,0,0-.82.39c-3.86,2.83-16.33,15.75-20.82,18a16.08,16.08,0,0,1,2.23,3.36c7.31-3.93,24.41-15.77,23.72-19C217.87,58.72,215.61,58.45,214.18,58.91Z"/><path class="cls-11" d="M216.56,33.57c-1.47,4.17-2.55,18.4-4.37,25.11-2.23,8.24,4.31,6.85,5.79,4.58,3.9-6,11.75-24.29,8.86-26.63C225.58,35.62,216.82,32.81,216.56,33.57Z"/><path class="cls-12" d="M216.38,32.52a1.18,1.18,0,0,0-.77.71c-.76,2.18-1.41,6.85-2.09,11.79S211,59.53,210.87,60c-1.55,1.35-16.18,15.07-18.79,16.4l3.17,5.13c6.43-3.46,20.64-13.11,23.61-17.84,3.17-4.9,12.55-24.71,8.61-27.9C226.15,34.79,218,32,216.38,32.52Z"/><path class="cls-4" d="M276.43,161.46,273.19,160a19.51,19.51,0,0,1-1.09,1.74c-1,1.33-5.9,2.62-5.77,4.39.07.89,2,1.54,3.54,1.48a7.33,7.33,0,0,0,3.65-.8c1-.68,2.87-1.36,3.15-1.94a2.55,2.55,0,0,0,0-2.06A2.06,2.06,0,0,0,276.43,161.46Z"/><path class="cls-11" d="M272.52,159.84a2.17,2.17,0,0,1-.42,1.87,5.2,5.2,0,0,0,1.95,1.59c.69.32,2.58-.52,2.58-.52a23.51,23.51,0,0,0,0-2.49Z"/><path class="cls-13" d="M272.79,57.83c-7.45,1.08-15.8,5.09-18.37,4.19-.14,2.17-2.42,30.68.83,57.42,1.7,14,17.12,33.48,17.12,41.19.06.16,3.21,1.57,4.6-.23,0-19-8.81-42.06-8.81-42.06C269.77,101.59,282.12,75.6,272.79,57.83Z"/><path class="cls-11" d="M222.66,12.7c-.27.58-3.62,5.8-5.09,6.33.22.37,3.29,3.87,3.56,6.49,1.46,1.8,7-1.18,6.7-5.38C226.68,19.52,223.39,14.68,222.66,12.7Z"/><path class="cls-11" d="M221,11.74c-1.26-2.76-4.14-4.23-6.93-3-2.6,1.19-4.72,3.08-4,5.74.25,1,4.75,8.41,9.46,7.37,2-.44,3.71-5.18,2.77-7.27Z"/><path class="cls-14" d="M234.25,18.61c-1.64.18-6.42,1.53-6.42,1.53s-1.58,4.19-3.47,5.39c-1.3.83-3.23,0-3.23,0s-4.06,4.1-4.66,5.08c-2.35,3.84,1.19,7.7,3.27,11.46,1.2,2.18,11.79,15.68,18.45,36.74,5.63,8.63,23.82,4.6,33.7-6.9L267,58.84l7.85,10.91c.75-.53,2.45-1.36,3-1.75C263.06,29.52,248.93,17,234.25,18.61Z"/><path class="cls-14" d="M227.83,20.14s-1.58,4.19-3.47,5.39c-1.3.83-3.23,0-3.23,0s-3.79,3.83-4.59,5c2.43,3.82,9.19,5.56,9.19,5.56s4.45-11.82,8.52-17.44a14.2,14.2,0,0,0-3.23.56Z"/><path class="cls-15" d="M217.79,1.74c-7.3-2.25-14.44,6.31-12.1,11.9.52,1.23,3,3.65,13.31-4.08,2.29,1.33,4.85,5.45,4.85,5.45C225.85,10.43,223.37,3.46,217.79,1.74Z"/><path class="cls-11" d="M220.91,10.42a2.72,2.72,0,0,0-1.12.74c.66,1.06,1.37,2.08,2.13,3.07a2.72,2.72,0,0,0,1-2.47A2,2,0,0,0,220.91,10.42Z"/><path class="cls-11" d="M215.49,76c0,.38,1.71.55,2,.39.71-.63.34-1,1.09-1.54a7.83,7.83,0,0,1-2.33.64C215.86,75.47,215.38,75.37,215.49,76Z"/><path class="cls-11" d="M219.19,74.41A20.21,20.21,0,0,0,217,76.13c-.85.74-2.55,2.6-2.67,2.73a14.08,14.08,0,0,0-1.42,1.67A2.12,2.12,0,0,0,213,81.8a.65.65,0,0,0,.67.26c.18.52,1.37-.18,1.38,0,.07.56.85.63,2.15-.86.08-.08,4-3.11,5.16-4.19A20.79,20.79,0,0,0,219.19,74.41Z"/><path class="cls-12" d="M244.35,26.65c-1.52-.77-10.09-1.76-11.55-.93a1.22,1.22,0,0,0-.6.86c-.28,2.3.07,7,.44,12a125.67,125.67,0,0,1,.58,13.58,15.51,15.51,0,0,0,0,1.67c-1.23,1.66-2.81,3.94-4.48,6.35-3.63,5.25-8.16,11.8-10.43,13.65l4.18,4.35c5.56-4.74,17.41-17.16,19.32-22.43C243.87,50.27,248.87,28.93,244.35,26.65Z"/><path class="cls-11" d="M71.31,83.17c-.57.77-.12,1.1-.75,1.73a7.92,7.92,0,0,1,2.15-1.09c.42-.12.91-.13.69-.67C73.28,82.78,71.61,83,71.31,83.17Z"/><path class="cls-11" d="M74,76.78c-.28-.47-1.31.45-1.35.32-.18-.53-1-.45-1.93,1.27-.06.11-3.28,3.86-4.21,5.15a21.06,21.06,0,0,0,3.58,1.88,18.44,18.44,0,0,0,1.82-2.13c.68-.9,2-3.07,2.06-3.22a13.61,13.61,0,0,0,1-1.92,2.14,2.14,0,0,0-.32-1.23A.65.65,0,0,0,74,76.78Z"/><path class="cls-11" d="M52.7,108.35c-1.15,7.05-1,27,2.64,27.94,1.56.42,10.7-.55,10.64-1.35-.34-4.41-5.09-17.86-6.14-24.74C58.56,101.76,53.13,105.67,52.7,108.35Z"/><path class="cls-11" d="M52.86,110c1.77,2.46,3.94,1.8,5.07.81a3,3,0,0,0,.59-.7c2.39-4.14,8.59-21,11.77-24.91a16.49,16.49,0,0,1-3.4-2.2C61.79,89.56,50.92,107.29,52.86,110Z"/><path class="cls-12" d="M69.74,87.13l-4.88-3.26c-4.3,5.68-13,20-13.67,25.41-.82,5.61,2,40.08,6.82,41.3,1.6.41,6.85-13.56,8.06-14.66a1.15,1.15,0,0,0,.39-.95c-.21-2.24-5.8-20.8-6.35-24.09a14.06,14.06,0,0,0-.35-1.59c.83-1.83,1.85-4.33,2.93-7C65.05,96.55,68,89.37,69.74,87.13Z"/><path class="cls-4" d="M102.81,281.54c-.52-.86-.94-1-.94-1l-3.49.72s.14,1.2.15,2c0,1.63-3.22,5.61-2.06,6.95.58.68,2.52.06,3.73-.89a7.41,7.41,0,0,0,2.47-2.8c.38-1.12,1.51-2.8,1.39-3.43A2.57,2.57,0,0,0,102.81,281.54Z"/><path class="cls-11" d="M98.18,281.23a8,8,0,0,1,.35,2.12,5.2,5.2,0,0,0,2.51.14c.75-.16,1.77-1.95,1.77-1.95-.52-.86-.91-1.41-.91-1.41Z"/><path class="cls-13" d="M90.73,240.3c2.47-17.92,6.52-40.52,5.54-53.77-7.53.19-17.24-1.13-19.69-2.32-.38,2.08-.17,29.22.58,55.51.36,12.57,21.24,42.42,21.24,42.42a4.24,4.24,0,0,0,4.22-.91S89.63,248.24,90.73,240.3Z"/><path class="cls-11" d="M63.44,225c.1,1.17,3.35,59.5,3.35,59.5a4.83,4.83,0,0,0,3.74.83s5.26-59.53,5.06-62.22C74.06,224.25,64.4,225.9,63.44,225Z"/><path class="cls-4" d="M70.32,284.45l-3.11-1.73s-.67,1-1.22,1.65c-1,1.25-6.1,2.15-6.1,3.92,0,.89,1.88,1.69,3.42,1.75a10.5,10.5,0,0,0,3.69-.51c.9-.29,3-1.13,3.3-1.68a2.57,2.57,0,0,0,.12-2.07A1.86,1.86,0,0,0,70.32,284.45Z"/><path class="cls-11" d="M66,284.37a5.11,5.11,0,0,0,1.81,1.74c.67.36,2.62-.33,2.62-.33.16-1,.23-1.65.23-1.65l-3.55-1.6A7.84,7.84,0,0,1,66,284.37Z"/><path class="cls-13" d="M58.4,180.76c-.56,4,7.94,102.55,7.94,102.55,0,.17,3.08,1.82,4.6.13,0,0,1.6-22.71,4.66-44.15,2.64-18.5,2.24-36,3.71-37.2V182.48C71.79,183,60.89,181.86,58.4,180.76Z"/><path class="cls-12" d="M58.79,182.87s.05,5.26.29,6.75c.69,4.16,5.16,6.41,8.61,6.14l1.22-4,1.71,4.15c15.89,1,26.57-3.68,26.57-3.68,1.8-5.75-.57-14.89-.57-14.89Z"/><path class="cls-11" d="M73.28,124.66c-.5.42-5.68,3.81-7.24,3.69,0,.43,1.41,4.88.59,7.38.6,2.23,6.87,1.79,8.32-2.17C74.15,132.52,73.12,126.76,73.28,124.66Z"/><path class="cls-14" d="M81.43,134.79c-1.63-.27-6.48-1.23-6.48-1.23s-3.16,3.18-5.38,3.5c-1.52.22-2.94-1.33-2.94-1.33s-5.38,2.08-6.34,2.73A8.6,8.6,0,0,0,56.8,148c2.61,10.73-1.31,36.18,2,37.48,4.54,1.77,30.59,2.05,38.38-5.32,0,0-3.22-26-6.93-36.38C88.87,139.79,86.32,135.59,81.43,134.79Z"/><path class="cls-15" d="M66.63,144c1.4-6-.09-7.85-.6-10.39a17,17,0,0,1,.61-7.94c-.06-.07-4-4.1-5.28-2a15.71,15.71,0,0,0-.23,8.78,13.89,13.89,0,0,1-.74,9.66,15.67,15.67,0,0,0-1.11,7.63c.94,9.52,6.65,14,8.29,13.08C69.37,161.8,64.63,152.68,66.63,144Z"/><path class="cls-11" d="M66.56,117.11c-2.85,0-5.06,1.33-5.49,4.06-.16,1,.89,9.62,5.61,10.59,2,.42,5.51-3.2,5.5-5.49v-3.16C72.15,120.07,69.63,117.1,66.56,117.11Z"/><path class="cls-15" d="M80.46,128.2A13.91,13.91,0,0,0,77,114.72a8.24,8.24,0,0,0-9.22-2.14C65,113.84,65,114.36,65,114.36a4.5,4.5,0,0,0-2.91.62c-3.24,1.92-2.72,9.39,0,11.6-2-8,2.94-9.42,2.94-9.42s3.53.23,5.33,2.19c1.64,1.79,3.39,6.7,2.58,10.53-.61,2.92-2.78,5.09-.16,11.84,3.76,9.7-2.93,20.41,0,21.46,2.62.95,11.17-4.59,11.91-15.48.13-1.87-.14-5.78-2.3-8.58A12.22,12.22,0,0,1,80.46,128.2Z"/><path class="cls-11" d="M72,121.92a2.7,2.7,0,0,0-1.24.53c.37,1,1.18,2.61,1.58,3.39a2.75,2.75,0,0,0,1.4-2.25C73.62,122.8,72.75,121.83,72,121.92Z"/><path class="cls-11" d="M342.72,143c0-.44.22-.9-.37-.89-.39,0-.83,1.6-.73,2,.51.81,1,.51,1.34,1.33A8.37,8.37,0,0,1,342.72,143Z"/><path class="cls-11" d="M340.36,142a9.6,9.6,0,0,0-1.26-1.29,2.44,2.44,0,0,0-1.23-.05.63.63,0,0,0-.4.54c-.53.11-.14,1.15-.27,1.15-.54,0-.8.65.33,1.84.07.07,2.07,3.52,2.83,4.57a24.39,24.39,0,0,0,3.15-2.39,12.74,12.74,0,0,0-1.14-2C341.85,143.67,340.46,142.12,340.36,142Z"/><path class="cls-11" d="M368.47,140.68c-2.44,3.7-6.92,17.24-10.31,23.32-4.16,7.45,2.52,7.69,4.51,5.84,5.23-4.87,17.28-20.73,15-23.7C376.73,144.85,368.91,140,368.47,140.68Z"/><path class="cls-12" d="M368.47,140.68c-1.72,2.61-4.75,10.12-8,16.09A54.83,54.83,0,0,0,366.9,161c.82.44,3.23,1.87,4.07,2.24,5-6.36,8.24-15.12,6.74-17.1C376.73,144.85,368.91,140,368.47,140.68Z"/><path class="cls-11" d="M362.11,165.76c-3-3.73-16.48-15.6-19-20a16.21,16.21,0,0,1-3.25,2.39c4.26,7.12,16.86,23.66,20.07,22.83,2.94-.76,3.11-3,2.59-4.44A3.23,3.23,0,0,0,362.11,165.76Z"/><path class="cls-16" d="M336,75.44c-14,1-24.85,13.21-24.68,27.29a26.09,26.09,0,0,0,13.8,23.15,9.39,9.39,0,0,1,4.89,8.33v.06h16.86v-.06a10,10,0,0,1,4.76-8.58A27.61,27.61,0,0,0,365,102.37a27.09,27.09,0,0,0-27.16-27C337.22,75.37,336.61,75.4,336,75.44Z"/><rect class="cls-17" x="326.07" y="133.65" width="24.7" height="10.78" rx="5.31"/><path class="cls-17" d="M342.21,127.28h0a1.79,1.79,0,0,1-1.8-1.78V108.42a1.79,1.79,0,0,1,1.78-1.8h0a1.81,1.81,0,0,1,1.8,1.8v17.06A1.81,1.81,0,0,1,342.21,127.28Z"/><path class="cls-17" d="M335.58,127.28h0a1.81,1.81,0,0,1-1.8-1.8V108.42a1.81,1.81,0,0,1,1.8-1.8h0a1.79,1.79,0,0,1,1.8,1.78v17.08a1.79,1.79,0,0,1-1.78,1.8Z"/><path class="cls-11" d="M398,225.46c-.1,1.17-3.36,59.51-3.36,59.51a4.79,4.79,0,0,1-3.74.82s-5.25-59.53-5.06-62.21C387.35,224.76,397,226.41,398,225.46Z"/><path class="cls-4" d="M391.08,285l3.12-1.74s.67,1,1.21,1.65c1.06,1.25,6.1,2.15,6.1,3.92,0,.89-1.88,1.69-3.41,1.75a7.2,7.2,0,0,1-3.7-.5c-1-.61-3-1.14-3.29-1.69a2.57,2.57,0,0,1-.12-2.07C390.83,285.31,391.08,285,391.08,285Z"/><path class="cls-11" d="M395.41,284.88a5.11,5.11,0,0,1-1.81,1.74c-.67.37-2.61-.33-2.61-.33-.16-1-.23-1.65-.23-1.65l3.54-1.59A7.78,7.78,0,0,0,395.41,284.88Z"/><path class="cls-13" d="M403,181.28c.55,4-7.95,102.54-7.95,102.54,0,.17-3.07,1.82-4.6.14,0,0-1.59-22.72-4.65-44.16-2.63-18.5-3.7-56.8-3.7-56.8C389.61,183.48,400.51,182.37,403,181.28Z"/><path class="cls-11" d="M370.87,225.46c.1,1.17,3.36,59.51,3.36,59.51a4.79,4.79,0,0,0,3.74.82s5.25-59.53,5-62.21C381.49,224.76,371.83,226.41,370.87,225.46Z"/><path class="cls-4" d="M377.76,285l-3.12-1.74s-.67,1-1.22,1.65c-1.05,1.25-6.1,2.15-6.1,3.92,0,.89,1.88,1.69,3.42,1.75a10.27,10.27,0,0,0,3.69-.5c.9-.3,3-1.14,3.3-1.69a2.57,2.57,0,0,0,.12-2.07C378,285.31,377.76,285,377.76,285Z"/><path class="cls-11" d="M373.42,284.88a5.11,5.11,0,0,0,1.81,1.74c.67.37,2.62-.33,2.62-.33.16-1,.23-1.65.23-1.65l-3.55-1.59A7.78,7.78,0,0,1,373.42,284.88Z"/><path class="cls-13" d="M365.83,181.28c-.56,4,7.94,102.54,7.94,102.54.05.17,3.08,1.82,4.6.14,0,0,1.6-22.72,4.66-44.16,2.64-18.5,2.24-36.05,3.71-37.2V183C379.22,183.48,368.32,182.37,365.83,181.28Z"/><path class="cls-12" d="M365.25,179.66s-2.39,11.48-1.24,12.47c2.6,2.26,12.35.18,19.76-.73s21.09.59,21.45-.93c1-4.09-.86-13.12-.86-13.12Z"/><path class="cls-11" d="M384.54,126.17c-.52.38-5.94,3.39-7.49,3.16,0,.43,1.05,5,.05,7.4.43,2.27,6.72,2.29,8.45-1.56C384.83,134.08,384.23,128.26,384.54,126.17Z"/><path class="cls-11" d="M378.85,118.65c-2.85-.2-5.6.46-6.23,3.15-.23,1,.18,9.66,4.82,11,2,.56,5.74-2.8,5.89-5.08,0,0,.22-3.12.22-3.15C383.75,121.52,381.91,118.85,378.85,118.65Z"/><path class="cls-14" d="M400.5,145.36c-1.74-4.79-3.75-7.33-8.57-8.49-1.61-.38-6.38-1.7-6.38-1.7s-3.38,2.94-5.61,3.1c-1.54.11-2.84-1.54-2.84-1.54s-5.51,1.68-6.52,2.26c-3.89,2.26-3.95,6.07-4.18,9.23-2.27,31.5-3.69,36.12-2.7,37.86,2.42,4.27,42.56,1.45,41.82-3.83C403,164.66,401,146.83,400.5,145.36Z"/><path class="cls-15" d="M385.26,117.22c-4.16-3.77-10.6.22-10.6.22-4.91.94-3.84,8.12-1.59,9.16-1.07-5.28,2.52-7,2.52-7,6.65-.09,9,7.83,8.51,9.89C384.1,129.5,391.52,122.9,385.26,117.22Z"/><path class="cls-11" d="M383.43,123.35a2.55,2.55,0,0,0-1.27.44,36.82,36.82,0,0,0,1.33,3.49,2.72,2.72,0,0,0,1.56-2.15C385,124.34,384.22,123.32,383.43,123.35Z"/><path class="cls-11" d="M348.56,121.62c-.38,0-.79,1.6-.69,2,.52.8,1,.49,1.36,1.31a8.09,8.09,0,0,1-.28-2.4C349,122.05,349.16,121.59,348.56,121.62Z"/><path class="cls-11" d="M345.86,120a13.31,13.31,0,0,0-1.43-1.66,2.12,2.12,0,0,0-1.27-.12.63.63,0,0,0-.35.62c-.54.1,0,1.38-.17,1.38-.56,0-.76.74.52,2.25.08.09,2.48,4.41,3.37,5.73a20.3,20.3,0,0,0,3-2.71,20.86,20.86,0,0,0-1.37-2.44C347.56,122.11,346,120.15,345.86,120Z"/><path class="cls-11" d="M393.6,140.25c-4.41-.24-18.38,2.7-25.33,2.83-8.53.16-5.38,6-2.78,6.84,6.85,2.07,26.61,4.49,28.05,1.06C394.16,149.49,394.4,140.29,393.6,140.25Z"/><path class="cls-12" d="M393.6,140.25c-2.87-1.23-11.13,1-17.92,1.18a23.05,23.05,0,0,0-.31,12.33c8,1.08,15.19.44,17.44-.6C398.62,150.49,397.32,141.83,393.6,140.25Z"/><path class="cls-11" d="M368.69,144.92c-3.05-3.68-16.71-15.34-19.28-19.68a15.56,15.56,0,0,1-3.22,2.43c4.37,7.06,17.23,23.4,20.43,22.52,2.93-.81,3.06-3.07,2.52-4.47A3,3,0,0,0,368.69,144.92Z"/><path class="cls-15" d="M401.1,121.92c-1.4-19.31-17.09-11.17-16.72-6.1.09,1.25.77,2,1.79.66,1.72-2.22,7.9-4.19,4.31,7.57-1,3.1-5,7.11,3.79,12.72,8,5.07,1.39,7,1.83,9.36,1.13,6,16.74-7,8.48-16C402.91,128.26,401.52,127.74,401.1,121.92Z"/><path class="cls-15" d="M385.31,115.44a1.88,1.88,0,0,0-1.13-.29,2.41,2.41,0,0,0-1.46.71,10.17,10.17,0,0,1,3.7,2.54C386.87,117.42,386.83,116.36,385.31,115.44Z"/><path class="cls-16" d="M452.58,289.92c-4.5-.59-8.93-1-13.42-1.7-16.94-2.75-33.37-5.06-50-9.58a412.71,412.71,0,0,1-50-17.34c-12.77-5.33-25.36-11.14-37.6-17.65-10.1-5.38-20.09-10.93-29.78-17.05C215.37,191,143.27,129.16,90.87,52.37L67.51,71.54c2.76,3.29,21,24.74,27.5,32.06,13.23,14.91,27.13,29.24,41.5,43,14.89,14.23,30.27,28,46.43,40.71,4.06,3.19,20.58,15.7,24.76,18.77,8.22,6,16.78,11.66,25.37,17.15,12.18,7.79,24.64,15.15,37.4,21.89a444.11,444.11,0,0,0,43.67,20.39C392.51,296.43,452.58,289.92,452.58,289.92Z"/><polygon class="cls-16" points="64.06 107.04 82.2 65.44 126.83 57.06 39.64 12.02 64.06 107.04"/><path class="cls-11" d="M89.43,90.36c-.49.81,0,1.1-.58,1.79a8,8,0,0,1,2-1.29c.41-.16.91-.21.63-.73C91.36,89.78,89.72,90.11,89.43,90.36Z"/><path class="cls-11" d="M91.5,83.74c-.33-.44-1.26.57-1.32.45-.22-.51-1-.36-1.8,1.45,0,.1-2.9,4.15-3.7,5.51a20.3,20.3,0,0,0,3.74,1.54A19.94,19.94,0,0,0,90,90.39c.59-1,1.68-3.23,1.75-3.39a14.22,14.22,0,0,0,.87-2,2.19,2.19,0,0,0-.43-1.2A.66.66,0,0,0,91.5,83.74Z"/><path class="cls-11" d="M73.28,117.18c-.48,7.13,1.59,26.93,5.27,27.56,1.59.27,10.6-1.55,10.47-2.34-.76-4.36-6.77-17.31-8.45-24.05C78.5,110.07,73.46,114.47,73.28,117.18Z"/><path class="cls-11" d="M73.6,118.79c2,2.29,4.09,1.43,5.12.33a3.19,3.19,0,0,0,.52-.74c2-4.35,6.57-21.72,9.37-25.92A16.16,16.16,0,0,1,85,90.62C80.56,97.62,71.41,116.3,73.6,118.79Z"/><path class="cls-12" d="M80.9,119a12.17,12.17,0,0,0-.5-1.55c.65-1.9,1.43-4.49,2.26-7.22,1.8-6,4-13.39,5.59-15.78l-5.18-2.79c-3.73,6.06-11,21.12-11.2,26.59-.28,5.66,5.81,39.7,10.68,40.47,1.64.25,5.54-14.15,6.65-15.36a1.09,1.09,0,0,0,.29-1C89.07,140.18,81.76,122.22,80.9,119Z"/><path class="cls-11" d="M137,122.82c-.52.8-.05,1.1-.63,1.78a7.88,7.88,0,0,1,2.06-1.25c.42-.14.91-.18.64-.71C139,122.29,137.3,122.58,137,122.82Z"/><path class="cls-11" d="M139.23,116.26c-.31-.45-1.27.54-1.32.41-.22-.52-1-.38-1.84,1.41,0,.1-3,4.08-3.83,5.43a20.74,20.74,0,0,0,3.71,1.62,19.3,19.3,0,0,0,1.66-2.26c.62-.94,1.75-3.19,1.83-3.35a14.48,14.48,0,0,0,.92-2,2.1,2.1,0,0,0-.41-1.21A.65.65,0,0,0,139.23,116.26Z"/><path class="cls-11" d="M122.24,150.84c2.47,1.77,4.32.44,5.06-.86a2.86,2.86,0,0,0,.34-.85c.94-4.69,6.89-20,8.65-24.79a15.69,15.69,0,0,1-3.92-1C129.64,131.22,119.54,148.91,122.24,150.84Z"/><path class="cls-12" d="M129,146.89c.22-2,6.8-18.64,7.81-21.38l-5.35-2.46c-3.22,6.36-11.86,21-10.84,26.52,1,5.76,10.71,35.09,22,39.41,7.86,3,2.13-22.86,1.79-22.74C139.32,168,129.26,147.34,129,146.89Z"/><path class="cls-12" d="M28.24,201c.45,2.11-.21,4.61.16,6.77.46,2.71,2.18,3.48,3.35,5.19,1.37,2,2,5.81,1.5,9a47.17,47.17,0,0,1-1.5,5.51,12.84,12.84,0,0,0-.41,6c.65,2.87,4.14,5.11,4.14,17.29,0,11.13-7.94,15.45-10.19,18.17V196.88l1,1A5.85,5.85,0,0,1,28.24,201Z"/><path class="cls-12" d="M19,227.55A48.54,48.54,0,0,1,17.46,222c-.5-3.23.13-7,1.51-9,1.16-1.71,2.88-2.48,3.34-5.19.37-2.16-.28-4.66.16-6.77a5.84,5.84,0,0,1,1.93-3.17l1-1V269c-2.25-2.72-10.19-7-10.19-18.17,0-12.18,3.49-14.42,4.15-17.29A12.92,12.92,0,0,0,19,227.55Z"/><path class="cls-14" d="M15,241.24c.6.79.33,2,.87,2.81.68,1,2.19,1,3.34,1.47a3.7,3.7,0,0,1,2.2,3.48,13.38,13.38,0,0,1-.64,2.64,3,3,0,0,0,.32,2.62c.86,1.07,4,1.26,5.33,6.4,1.22,4.68-4.88,8.22-6.44,9.86l-7.92-30.41.95.19A3.13,3.13,0,0,1,15,241.24Z"/><path class="cls-14" d="M10.79,245.37c.07-1-.75-1.91-.61-2.89a3.15,3.15,0,0,1,1.25-1.76l.74-.63,7.92,30.41c-2.17-.67-9.22-.78-10.44-5.47-1.34-5.13,1.31-6.83,1.53-8.18a3,3,0,0,0-1-2.44,12.51,12.51,0,0,1-1.85-2,3.67,3.67,0,0,1,.25-4.13C9.37,247.3,10.7,246.61,10.79,245.37Z"/><path class="cls-13" d="M38.43,267.18s-5,5.31-5,8.88a16.11,16.11,0,0,0,.84,4,8,8,0,0,1-5.13,10.09,8.24,8.24,0,0,1-2.52.39h-13A8,8,0,0,1,5.93,280.1a16.12,16.12,0,0,0,.85-4c0-3.57-4.95-8.88-4.95-8.88Z"/></g></svg>