<svg id="Layer_1" data-name="Layer 1" xmlns="http://www.w3.org/2000/svg" xmlns:xlink="http://www.w3.org/1999/xlink" viewBox="0 0 386.93 360.37"><defs><style>.cls-1,.cls-15,.cls-48,.cls-49,.cls-7{fill:none;}.cls-17,.cls-2{opacity:0.5;}.cls-3,.cls-4{fill:#ddd6ff;}.cls-3{opacity:0.43;}.cls-17,.cls-20,.cls-21,.cls-22,.cls-3,.cls-50,.cls-51{isolation:isolate;}.cls-5{fill:#d6d4ff;}.cls-6{opacity:0.25;}.cls-48,.cls-49,.cls-7{stroke:#fff;}.cls-15,.cls-48,.cls-49,.cls-7{stroke-linecap:round;stroke-linejoin:round;}.cls-7{stroke-width:0.75px;}.cls-8{fill:#bfb8f4;}.cls-9{fill:#7a49c9;}.cls-10{fill:#581e96;}.cls-11{fill:#837fe5;}.cls-12{fill:#f8f8ff;}.cls-13,.cls-21{fill:#ffc359;}.cls-14{opacity:0.15;}.cls-15{stroke:#0964af;stroke-width:3.05px;}.cls-16,.cls-50,.cls-51{fill:#9999ef;}.cls-17,.cls-20,.cls-22,.cls-43{fill:#fff;}.cls-18,.cls-21,.cls-22,.cls-50{opacity:0.3;}.cls-19{fill:#8989e8;}.cls-20{font-size:5.93px;font-family:Arial-BoldMT, Arial;font-weight:700;}.cls-23{fill:#ffc043;}.cls-24{fill:#e0902f;}.cls-25{fill:#ffda40;}.cls-26{fill:#965c17;}.cls-27{fill:#38326d;}.cls-28{fill:#f6a388;}.cls-29{fill:#55499b;}.cls-30{fill:#452e17;}.cls-31{fill:#766cd3;}.cls-32{fill:#ffc4c0;}.cls-33{fill:#c98224;}.cls-34{fill:#262376;}.cls-35{fill:#191960;}.cls-36{clip-path:url(#clip-path);}.cls-37{fill:#8883e5;}.cls-38{fill:#7d67ce;}.cls-39{fill:#131354;}.cls-40{fill:#6479ad;}.cls-41{fill:#664624;}.cls-42{fill:#e0856c;}.cls-44{fill:#934747;}.cls-45{clip-path:url(#clip-path-2);}.cls-46{fill:#ea5c5c;}.cls-47{fill:#d1816b;}.cls-48{stroke-width:1.06px;}.cls-49{stroke-width:1.62px;}.cls-51{opacity:0.2;}.cls-52{fill:#6786f4;}.cls-53{opacity:0.7;}.cls-54{fill:#c9c2ff;}.cls-55{fill:#f2f0ff;}</style><clipPath id="clip-path"><path class="cls-1" d="M290.55,178.28c.33.38-3,4.07-3.36,4.32a7.64,7.64,0,0,1-9.28-.2,6,6,0,0,1-1.84-2.4c-.1-.26-.66-3-.22-3H272l-7.4,18.46c.55,26.26,0,46.23,0,46.23,4.55,3.61,7.76,3.85,21.19,5.09s16.55,2,20.87-2.21C305.13,238.3,308,207,290.55,178.28Z"/></clipPath><clipPath id="clip-path-2"><path class="cls-1" d="M272.94,161.59a4,4,0,0,0-.81,3.47,2.48,2.48,0,0,0,2.37,1.37,9.75,9.75,0,0,0,3.83-1.16A28.69,28.69,0,0,1,272.94,161.59Z"/></clipPath></defs><title>Email Marketing</title><g id="OBJECT"><g class="cls-2"><path class="cls-3" d="M136.12,240.09V208.26l-21.59,23.59v39.24H100.62V214.86H97.09L87,205.45l-10.12,9.41H73.41v75.89H22.23v41.33H169.85v-92Zm-39,20.18H76.94v-2.06H97.09Zm0-4.11H76.94v-2.05H97.09Zm0-4.1H76.94V250H97.09Zm0-4.11H76.94v-2H97.09Zm0-4.1H76.94v-2.06H97.09Zm0-4.11H76.94v-2.05H97.09Zm0-4.1H76.94v-2H97.09Zm0-4.11H76.94v-2.05H97.09Zm0-4.1H76.94v-2.06H97.09Zm0-4.11H76.94v-2H97.09Zm0-4.1H76.94v-2.05H97.09Zm36.3,100h-2.1v-101l2.1-2.29Z"/><path class="cls-3" d="M288.59,240.09V208.26L267,231.85v39.24H253.09V214.86h-3.54l-10.07-9.41-10.13,9.41h-3.47v75.89H174.69v41.33H322.32v-92Zm-39,20.18H229.41v-2.06h20.14Zm0-4.11H229.41v-2.05h20.14Zm0-4.1H229.41V250h20.14Zm0-4.11H229.41v-2h20.14Zm0-4.1H229.41v-2.06h20.14Zm0-4.11H229.41v-2.05h20.14Zm0-4.1H229.41v-2h20.14Zm0-4.11H229.41v-2.05h20.14Zm0-4.1H229.41v-2.06h20.14Zm0-4.11H229.41v-2h20.14Zm0-4.1H229.41v-2.05h20.14Zm36.3,100H283.8v-101l2.09-2.29Z"/><path class="cls-4" d="M233.49,293.57V221.62h-3.24v-7.28H205.17v7.28h-3.23v90.45H178.41v-41H144.13v53.75H127.57V228.58H93.81v74h-4v-44h-6.1l-17-9v9H63V312.9H54.72V239.25H46.36V213.41H45.21v25.84H36.85v93H254.62V293.57Zm-180.79-7H38.91V285H52.7Zm0-3.71H38.91v-1.6H52.7Zm0-3.71H38.91v-1.6H52.7Zm0-3.7H38.91v-1.6H52.7Zm0-3.7H38.91v-1.6H52.7Zm0-3.71H38.91v-1.6H52.7Zm0-3.71H38.91v-1.6H52.7Zm0-3.7H38.91V259H52.7Zm0-3.71H38.91v-1.6H52.7Zm0-3.7H38.91v-1.6H52.7Zm0-3.71H38.91v-1.6H52.7Zm0-3.71H38.91v-1.6H52.7Zm0-3.7H38.91v-1.6H52.7Zm48.38,22.06H97v-4.11h4.11Zm0-6.85H97v-4.1h4.11Zm0-6.84H97v-4.11h4.11Zm0-6.85H97v-4.1h4.11Zm0-6.84H97v-4.11h4.11Zm7.8,27.38h-4.1v-4.11h4.1Zm0-6.85h-4.1v-4.1h4.1Zm0-6.84h-4.1v-4.11h4.1Zm0-6.85h-4.1v-4.1h4.1Zm0-6.84h-4.1v-4.11h4.1Zm7.81,27.38h-4.11v-4.11h4.11Zm0-6.85h-4.11v-4.1h4.11Zm0-6.84h-4.11v-4.11h4.11Zm0-6.85h-4.11v-4.1h4.11Zm0-6.84h-4.11v-4.11h4.11Zm7.8,27.38h-4.11v-4.11h4.11Zm0-6.85h-4.11v-4.1h4.11Zm0-6.84h-4.11v-4.11h4.11Zm0-6.85h-4.11v-4.1h4.11Zm112.23,83.8h-4.26v-4.27h4.26Zm0-8.55h-4.26v-4.26h4.26Zm0-8.54h-4.26v-4.27h4.26Zm0-8.55h-4.26v-4.27h4.26Zm7.92,25.64h-4.26v-4.27h4.26Zm0-8.55h-4.26v-4.26h4.26Zm0-8.54h-4.26v-4.27h4.26Zm0-8.55h-4.26v-4.27h4.26Zm7.92,25.64h-4.27v-4.27h4.27Zm0-8.55h-4.27v-4.26h4.27Zm0-8.54h-4.27v-4.27h4.27Zm0-8.55h-4.27v-4.27h4.27Z"/><path class="cls-4" d="M333.65,285.92v-64.3h-3.24v-7.28H305.33v7.28H302.1v90.45H278.57v-41H244.29v53.75H227.73V228.58H194v74h-4v-44h-6.1l-17-9v9h-3.73V312.9h-8.26V239.25h-8.36V213.41H145.4v25.84H137v93H354.77V285.92Zm-180.79.66H139.07V285h13.79Zm0-3.71H139.07v-1.6h13.79Zm0-3.71H139.07v-1.6h13.79Zm0-3.7H139.07v-1.6h13.79Zm0-3.7H139.07v-1.6h13.79Zm0-3.71H139.07v-1.6h13.79Zm0-3.71H139.07v-1.6h13.79Zm0-3.7H139.07V259h13.79Zm0-3.71H139.07v-1.6h13.79Zm0-3.7H139.07v-1.6h13.79Zm0-3.71H139.07v-1.6h13.79Zm0-3.71H139.07v-1.6h13.79Zm0-3.7H139.07v-1.6h13.79Zm48.38,22.06h-4.11v-4.11h4.11Zm0-6.85h-4.11v-4.1h4.11Zm0-6.84h-4.11v-4.11h4.11Zm0-6.85h-4.11v-4.1h4.11Zm0-6.84h-4.11v-4.11h4.11Zm7.8,27.38h-4.1v-4.11H209Zm0-6.85h-4.1v-4.1H209Zm0-6.84h-4.1v-4.11H209Zm0-6.85h-4.1v-4.1H209Zm0-6.84h-4.1v-4.11H209Zm7.81,27.38h-4.11v-4.11h4.11Zm0-6.85h-4.11v-4.1h4.11Zm0-6.84h-4.11v-4.11h4.11Zm0-6.85h-4.11v-4.1h4.11Zm0-6.84h-4.11v-4.11h4.11Zm7.8,27.38h-4.11v-4.11h4.11Zm0-6.85h-4.11v-4.1h4.11Zm0-6.84h-4.11v-4.11h4.11Zm0-6.85h-4.11v-4.1h4.11Zm114.4,72.47h-3.69v-3.68h3.69Zm0-7.38h-3.69V305h3.69Zm0-7.38h-3.69v-3.68h3.69Zm0-7.38h-3.69v-3.68h3.69Zm6.84,22.14H342.2v-3.68h3.69Zm0-7.38H342.2V305h3.69Zm0-7.38H342.2v-3.68h3.69Zm0-7.38H342.2v-3.68h3.69Zm6.83,22.14H349v-3.68h3.69Zm0-7.38H349V305h3.69Zm0-7.38H349v-3.68h3.69Zm0-7.38H349v-3.68h3.69Z"/><rect class="cls-3" x="354.77" y="299.66" width="14.62" height="32.59"/></g><path class="cls-5" d="M98.52,302.81c-1.78-2.86-3.61-5.86-3.91-9.22-.27-3.11-.78-6.55-.31-9.63a25.37,25.37,0,0,0-.42-9.31c-2.14-9.56-6.16-8.5-7.62-7.77s-2.11,2.29-2.17,4.81c-.06,2,1.41,11.54-1.7,10.15-3.59-1.61-3.53-11.54-4.12-14.85-.87-4.94-2.94-10.21-6.75-13.63-1.87-1.68-4.63-2.9-6.88-1.78a5.81,5.81,0,0,0-2.69,3.5c-1.44,4.31.08,8.77,1.8,12.76.72,1.66,6.51,9.35,1.76,8.63-1.13-.17-10.63-7.51-11.5.17-.31,2.71,2.73,5.46,7.55,8.89,3,2.14,14.14,7.71,13.6,10.7s-6.71-1.73-5.94,3.83c.43,3.11,4.54,5.33,7.32,6.48,1.33.55,2.76.84,4,1.47,1.53.75,3.4,2.59,2.26,4.4-.5.8-1.48,1.2-2,2a2.66,2.66,0,0,0,.19,2.71,6.33,6.33,0,0,0,2.2,1.88c5.22,3.15,11.74,3.62,17.71,2.39s11.5-4,16.78-7.07"/><g class="cls-6"><path class="cls-7" d="M67.63,256.76s6.52,32.52,26.43,52.68"/><path class="cls-7" d="M58.77,278.3S69.87,286.83,79,288"/><path class="cls-7" d="M88,270.93c.62,5.11,1.18,19.4-3.62,26.34"/><path class="cls-7" d="M73.3,301.09s4.36,3.72,17.79,5.14"/><path class="cls-7" d="M83.52,315.29a21.25,21.25,0,0,0,13.07-2.5"/></g><path class="cls-8" d="M115.11,299.8c-.69-3.89-7.84-28.31-20.4-21.82-7.46,3.85-6.11,18,5.54,28.75-2.29-2.21-4.93-4.72-8-5.34a6.2,6.2,0,0,0-5,1.61,5.83,5.83,0,0,0-1.51,4.2,16.54,16.54,0,0,0,7.37,14.15c-2.57-1.44-4.81-3.24-7.75-3.49a3.61,3.61,0,0,0-3,1.31c-.49.93-.45,4.4,5.22,7-23.12-4.38-24.47,5.48-16.16,5.48h68.16"/><path class="cls-8" d="M238,299.8c.68-3.89,7.84-28.31,20.39-21.82,7.46,3.85,6.12,18-5.53,28.75,2.29-2.21,4.93-4.72,8-5.34a6.21,6.21,0,0,1,5,1.61,5.9,5.9,0,0,1,1.5,4.2A16.53,16.53,0,0,1,260,321.35c2.58-1.44,4.81-3.24,7.75-3.49a3.61,3.61,0,0,1,3,1.31c.48.93.45,4.4-5.22,7,23.12-4.38,24.46,5.48,16.15,5.48H226.81"/><path class="cls-5" d="M232.39,282.74c1.45-3,2.94-6.23,2.85-9.6-.07-3.12,0-6.59-.77-9.61a25.28,25.28,0,0,1-.62-9.29c1.06-9.75,5.17-9.14,6.7-8.58s2.35,2,2.7,4.54c.29,2-.11,11.62,2.82,9.9,3.39-2,2.22-11.87,2.44-15.22.31-5,1.77-10.48,5.17-14.3,1.68-1.88,4.28-3.41,6.65-2.54a5.83,5.83,0,0,1,3.06,3.17c1.91,4.13.9,8.73-.36,12.88-.53,1.74-5.43,10-.79,8.78,1.11-.3,9.73-8.65,11.46-1.12.6,2.66-2.11,5.73-6.52,9.68-2.75,2.47-13.18,9.25-12.31,12.16s6.47-2.48,6.33,3.13c-.07,3.15-3.91,5.81-6.55,7.27-1.25.69-2.64,1.14-3.85,1.91-1.43.92-3.09,3-1.75,4.63.59.73,1.61,1,2.17,1.77a2.64,2.64,0,0,1,.11,2.7,6.15,6.15,0,0,1-1.89,2.1c-4.84,3.72-11.26,4.91-17.33,4.36s-11.88-2.71-17.47-5.15"/><g class="cls-6"><path class="cls-7" d="M257.94,233.52s-2.84,33-20.37,55.31"/><path class="cls-7" d="M269.15,253.93s-10.08,9.72-19,11.91"/><path class="cls-7" d="M239.31,249.87c0,5.16,1,19.42,6.55,25.77"/><path class="cls-7" d="M257.27,278.21s-3.92,4.18-17.11,7.1"/><path class="cls-7" d="M248.69,293.46a21.19,21.19,0,0,1-13.27-1"/></g><path class="cls-9" d="M248,75V312a19.7,19.7,0,0,1-19.68,19.7H131.14A19.7,19.7,0,0,1,111.45,312h0V75a19.7,19.7,0,0,1,19.69-19.69h97.21A19.69,19.69,0,0,1,248,75Z"/><path class="cls-10" d="M248,75v3.27H111.45V75a19.7,19.7,0,0,1,19.69-19.69h97.21A19.69,19.69,0,0,1,248,75Z"/><path class="cls-10" d="M248,308.67v3.27a19.7,19.7,0,0,1-19.7,19.69H131.1A19.68,19.68,0,0,1,111.41,312v-3.29Z"/><path class="cls-10" d="M248,111.49h1.14a2.59,2.59,0,0,1,2.58,2.58h0v47a2.59,2.59,0,0,1-2.58,2.58H248V111.49Z"/><path class="cls-10" d="M110.38,110.6h1.06V136h-1.06a2.39,2.39,0,0,1-2.4-2.4V113a2.39,2.39,0,0,1,2.4-2.4Z"/><path class="cls-10" d="M110.52,148h.93v15.61h-.93a2.1,2.1,0,0,1-2.09-2.09v-11.4a2.1,2.1,0,0,1,2.06-2.12Z"/><path class="cls-11" d="M160.16,66.75a3.89,3.89,0,1,1-3.89-3.9,3.89,3.89,0,0,1,3.89,3.9Z"/><path class="cls-11" d="M168.59,66.75a1.88,1.88,0,1,1-1.88-1.88,1.88,1.88,0,0,1,1.88,1.88Z"/><rect class="cls-11" x="173.27" y="64.42" width="35.92" height="4.65" rx="1.61"/><circle class="cls-11" cx="179.74" cy="320.63" r="7.49" transform="translate(-173.69 421.61) rotate(-76.67)"/><rect class="cls-12" x="114.46" y="78.22" width="129.5" height="230.45"/><rect class="cls-3" x="118.17" y="85.46" width="122.53" height="67.88"/><polygon class="cls-13" points="161.47 90.84 162.51 92.97 164.86 93.31 163.16 94.96 163.56 97.3 161.47 96.2 159.37 97.3 159.77 94.96 158.07 93.31 160.42 92.97 161.47 90.84"/><polygon class="cls-13" points="171.7 90.84 172.75 92.97 175.09 93.31 173.4 94.96 173.8 97.3 171.7 96.2 169.6 97.3 170 94.96 168.31 93.31 170.65 92.97 171.7 90.84"/><polygon class="cls-13" points="181.93 90.84 182.98 92.97 185.33 93.31 183.63 94.96 184.03 97.3 181.93 96.2 179.84 97.3 180.24 94.96 178.54 93.31 180.89 92.97 181.93 90.84"/><polygon class="cls-13" points="192.17 90.84 193.22 92.97 195.56 93.31 193.87 94.96 194.26 97.3 192.17 96.2 190.07 97.3 190.47 94.96 188.78 93.31 191.12 92.97 192.17 90.84"/><polygon class="cls-13" points="202.4 90.84 203.45 92.97 205.79 93.31 204.1 94.96 204.5 97.3 202.4 96.2 200.31 97.3 200.71 94.96 199.01 93.31 201.35 92.97 202.4 90.84"/><g class="cls-14"><line class="cls-15" x1="236.19" y1="129.06" x2="224.62" y2="129.06"/><line class="cls-15" x1="175.76" y1="120.34" x2="159.2" y2="120.34"/><line class="cls-15" x1="236.19" y1="120.34" x2="182.93" y2="120.34"/><line class="cls-15" x1="236.19" y1="111.63" x2="159.2" y2="111.63"/><line class="cls-15" x1="186.92" y1="102.91" x2="159.2" y2="102.91"/><line class="cls-15" x1="236.19" y1="102.91" x2="193.82" y2="102.91"/><line class="cls-15" x1="217.48" y1="129.06" x2="159.2" y2="129.06"/></g><rect class="cls-16" x="122.93" y="95.46" width="29.39" height="53.29"/><rect class="cls-17" x="132.95" y="135.97" width="9.12" height="12.78"/><rect class="cls-16" x="127.01" y="91.14" width="21" height="3.67"/><g class="cls-18"><rect class="cls-12" x="138.64" y="119.73" width="4.58" height="4.58"/><rect class="cls-12" x="145.49" y="119.73" width="4.58" height="4.58"/><rect class="cls-12" x="124.96" y="126.85" width="4.58" height="4.58"/><rect class="cls-12" x="131.8" y="126.85" width="4.58" height="4.58"/><rect class="cls-12" x="138.64" y="126.85" width="4.58" height="4.58"/><rect class="cls-12" x="145.49" y="126.85" width="4.58" height="4.58"/><rect class="cls-12" x="124.96" y="98.35" width="4.58" height="4.58"/><rect class="cls-12" x="131.8" y="98.35" width="4.58" height="4.58"/><rect class="cls-12" x="138.64" y="98.35" width="4.58" height="4.58"/><rect class="cls-12" x="145.49" y="98.35" width="4.58" height="4.58"/><rect class="cls-12" x="124.96" y="105.48" width="4.58" height="4.58"/><rect class="cls-12" x="131.8" y="105.48" width="4.58" height="4.58"/><rect class="cls-12" x="138.64" y="105.48" width="4.58" height="4.58"/><rect class="cls-12" x="145.49" y="105.48" width="4.58" height="4.58"/><rect class="cls-12" x="124.96" y="112.6" width="4.58" height="4.58"/><rect class="cls-12" x="131.8" y="112.6" width="4.58" height="4.58"/><rect class="cls-12" x="138.64" y="112.6" width="4.58" height="4.58"/><rect class="cls-12" x="145.49" y="112.6" width="4.58" height="4.58"/><rect class="cls-12" x="124.96" y="119.73" width="4.58" height="4.58"/><rect class="cls-12" x="131.8" y="119.73" width="4.58" height="4.58"/></g><rect class="cls-19" x="121.83" y="146.71" width="31.37" height="2.04"/><path class="cls-11" d="M190.54,148.75H164a5.94,5.94,0,0,1-5.94-5.94h0a5.92,5.92,0,0,1,5.93-5.93h26.54a5.92,5.92,0,0,1,5.93,5.93h0A5.94,5.94,0,0,1,190.54,148.75Z"/><text class="cls-20" transform="translate(168.23 144.95)">BOOK</text><rect class="cls-3" x="118.17" y="160.19" width="122.53" height="67.88"/><polygon class="cls-13" points="161.47 165.58 162.51 167.7 164.86 168.04 163.16 169.7 163.56 172.03 161.47 170.93 159.37 172.03 159.77 169.7 158.07 168.04 160.42 167.7 161.47 165.58"/><polygon class="cls-13" points="171.7 165.58 172.75 167.7 175.09 168.04 173.4 169.7 173.8 172.03 171.7 170.93 169.6 172.03 170 169.7 168.31 168.04 170.65 167.7 171.7 165.58"/><polygon class="cls-13" points="181.93 165.58 182.98 167.7 185.33 168.04 183.63 169.7 184.03 172.03 181.93 170.93 179.84 172.03 180.24 169.7 178.54 168.04 180.89 167.7 181.93 165.58"/><polygon class="cls-21" points="192.17 165.58 193.22 167.7 195.56 168.04 193.87 169.7 194.26 172.03 192.17 170.93 190.07 172.03 190.47 169.7 188.78 168.04 191.12 167.7 192.17 165.58"/><polygon class="cls-21" points="202.4 165.58 203.45 167.7 205.79 168.04 204.1 169.7 204.5 172.03 202.4 170.93 200.31 172.03 200.71 169.7 199.01 168.04 201.35 167.7 202.4 165.58"/><g class="cls-14"><line class="cls-15" x1="236.19" y1="203.79" x2="224.62" y2="203.79"/><line class="cls-15" x1="175.76" y1="195.08" x2="159.2" y2="195.08"/><line class="cls-15" x1="236.19" y1="195.08" x2="182.93" y2="195.08"/><line class="cls-15" x1="236.19" y1="186.36" x2="159.2" y2="186.36"/><line class="cls-15" x1="186.92" y1="177.65" x2="159.2" y2="177.65"/><line class="cls-15" x1="236.19" y1="177.65" x2="193.82" y2="177.65"/><line class="cls-15" x1="217.48" y1="203.79" x2="159.2" y2="203.79"/></g><rect class="cls-16" x="122.93" y="170.19" width="29.39" height="53.29"/><rect class="cls-17" x="132.95" y="210.7" width="9.12" height="12.78"/><rect class="cls-16" x="127.01" y="165.87" width="21" height="3.67"/><g class="cls-18"><rect class="cls-12" x="138.64" y="194.46" width="4.58" height="4.58"/><rect class="cls-12" x="145.49" y="194.46" width="4.58" height="4.58"/><rect class="cls-12" x="124.96" y="201.58" width="4.58" height="4.58"/><rect class="cls-12" x="131.8" y="201.58" width="4.58" height="4.58"/><rect class="cls-12" x="138.64" y="201.58" width="4.58" height="4.58"/><rect class="cls-12" x="145.49" y="201.58" width="4.58" height="4.58"/><rect class="cls-12" x="124.96" y="173.08" width="4.58" height="4.58"/><rect class="cls-12" x="131.8" y="173.08" width="4.58" height="4.58"/><rect class="cls-12" x="138.64" y="173.08" width="4.58" height="4.58"/><rect class="cls-12" x="145.49" y="173.08" width="4.58" height="4.58"/><rect class="cls-12" x="124.96" y="180.21" width="4.58" height="4.58"/><rect class="cls-12" x="131.8" y="180.21" width="4.58" height="4.58"/><rect class="cls-12" x="138.64" y="180.21" width="4.58" height="4.58"/><rect class="cls-12" x="145.49" y="180.21" width="4.58" height="4.58"/><rect class="cls-12" x="124.96" y="187.33" width="4.58" height="4.58"/><rect class="cls-12" x="131.8" y="187.33" width="4.58" height="4.58"/><rect class="cls-12" x="138.64" y="187.33" width="4.58" height="4.58"/><rect class="cls-12" x="145.49" y="187.33" width="4.58" height="4.58"/><rect class="cls-12" x="124.96" y="194.46" width="4.58" height="4.58"/><rect class="cls-12" x="131.8" y="194.46" width="4.58" height="4.58"/></g><rect class="cls-19" x="121.83" y="221.44" width="31.37" height="2.04"/><path class="cls-11" d="M190.54,223.48H164a5.94,5.94,0,0,1-5.94-5.94h0a5.94,5.94,0,0,1,5.94-5.93h26.53a6,6,0,0,1,5.93,5.93h0A5.94,5.94,0,0,1,190.54,223.48Z"/><text class="cls-20" transform="translate(168.23 219.68)">BOOK</text><rect class="cls-3" x="118.17" y="234.93" width="122.53" height="67.88"/><polygon class="cls-13" points="161.47 240.31 162.51 242.44 164.86 242.78 163.16 244.43 163.56 246.76 161.47 245.66 159.37 246.76 159.77 244.43 158.07 242.78 160.42 242.44 161.47 240.31"/><polygon class="cls-13" points="171.7 240.31 172.75 242.44 175.09 242.78 173.4 244.43 173.8 246.76 171.7 245.66 169.6 246.76 170 244.43 168.31 242.78 170.65 242.44 171.7 240.31"/><polygon class="cls-13" points="181.93 240.31 182.98 242.44 185.33 242.78 183.63 244.43 184.03 246.76 181.93 245.66 179.84 246.76 180.24 244.43 178.54 242.78 180.89 242.44 181.93 240.31"/><polygon class="cls-13" points="192.17 240.31 193.22 242.44 195.56 242.78 193.87 244.43 194.26 246.76 192.17 245.66 190.07 246.76 190.47 244.43 188.78 242.78 191.12 242.44 192.17 240.31"/><polygon class="cls-21" points="202.4 240.31 203.45 242.44 205.79 242.78 204.1 244.43 204.5 246.76 202.4 245.66 200.31 246.76 200.71 244.43 199.01 242.78 201.35 242.44 202.4 240.31"/><g class="cls-14"><line class="cls-15" x1="236.19" y1="278.52" x2="224.62" y2="278.52"/><line class="cls-15" x1="175.76" y1="269.81" x2="159.2" y2="269.81"/><line class="cls-15" x1="236.19" y1="269.81" x2="182.93" y2="269.81"/><line class="cls-15" x1="236.19" y1="261.1" x2="159.2" y2="261.1"/><line class="cls-15" x1="186.92" y1="252.38" x2="159.2" y2="252.38"/><line class="cls-15" x1="236.19" y1="252.38" x2="193.82" y2="252.38"/><line class="cls-15" x1="217.48" y1="278.52" x2="159.2" y2="278.52"/></g><rect class="cls-16" x="122.93" y="244.93" width="29.39" height="53.29"/><rect class="cls-17" x="132.95" y="285.44" width="9.12" height="12.78"/><rect class="cls-16" x="127.01" y="240.6" width="21" height="3.67"/><g class="cls-18"><rect class="cls-12" x="138.64" y="269.19" width="4.58" height="4.58"/><rect class="cls-12" x="145.49" y="269.19" width="4.58" height="4.58"/><rect class="cls-12" x="124.96" y="276.32" width="4.58" height="4.58"/><rect class="cls-12" x="131.8" y="276.32" width="4.58" height="4.58"/><rect class="cls-12" x="138.64" y="276.32" width="4.58" height="4.58"/><rect class="cls-12" x="145.49" y="276.32" width="4.58" height="4.58"/><rect class="cls-12" x="124.96" y="247.82" width="4.58" height="4.58"/><rect class="cls-12" x="131.8" y="247.82" width="4.58" height="4.58"/><rect class="cls-12" x="138.64" y="247.82" width="4.58" height="4.58"/><rect class="cls-12" x="145.49" y="247.82" width="4.58" height="4.58"/><rect class="cls-12" x="124.96" y="254.94" width="4.58" height="4.58"/><rect class="cls-12" x="131.8" y="254.94" width="4.58" height="4.58"/><rect class="cls-12" x="138.64" y="254.94" width="4.58" height="4.58"/><rect class="cls-12" x="145.49" y="254.94" width="4.58" height="4.58"/><rect class="cls-12" x="124.96" y="262.07" width="4.58" height="4.58"/><rect class="cls-12" x="131.8" y="262.07" width="4.58" height="4.58"/><rect class="cls-12" x="138.64" y="262.07" width="4.58" height="4.58"/><rect class="cls-12" x="145.49" y="262.07" width="4.58" height="4.58"/><rect class="cls-12" x="124.96" y="269.19" width="4.58" height="4.58"/><rect class="cls-12" x="131.8" y="269.19" width="4.58" height="4.58"/></g><rect class="cls-19" x="121.83" y="296.18" width="31.37" height="2.04"/><path class="cls-11" d="M190.54,298.21H164a5.92,5.92,0,0,1-5.94-5.92h0a5.94,5.94,0,0,1,5.94-5.94h26.53a5.94,5.94,0,0,1,5.93,5.94h0A5.93,5.93,0,0,1,190.54,298.21Z"/><text class="cls-20" transform="translate(168.23 294.42)">BOOK</text><polygon class="cls-22" points="200.16 78.22 114.46 209.44 114.46 136.35 152.42 78.22 200.16 78.22"/><polygon class="cls-22" points="236.24 78.22 114.46 264.69 114.46 230.82 214.12 78.22 236.24 78.22"/><polygon class="cls-22" points="243.96 154.52 243.96 188.39 165.41 308.67 143.29 308.67 243.96 154.52"/><path class="cls-8" d="M386.49,332.49H.44a.44.44,0,0,1-.44-.44H0a.44.44,0,0,1,.44-.44H386.49a.44.44,0,0,1,.44.44h0a.44.44,0,0,1-.44.44Z"/><path class="cls-3" d="M329.78,354.64c0,3.16-20.55,5.73-45.89,5.73S238,357.8,238,354.64s20.54-5.74,45.88-5.74S329.78,351.47,329.78,354.64Z"/><path class="cls-23" d="M325.8,221s2.59-.42,3,1,.19,12,.06,13.23-2.44,2.86-5.44,3.68C324,232,325.8,221,325.8,221Z"/><path class="cls-24" d="M321,211.72s4,.18,5,2.41.78,21.13.05,23.18-4.32,2-11.2,3.86c4-6.74,4.4-9.61,4.35-10.73S321,211.72,321,211.72Z"/><path class="cls-23" d="M316.21,183.16a25.83,25.83,0,0,1,5.23,9.9,62.14,62.14,0,0,1,2.21,13.54c-.13.4-3.51,1-3.8.92S316.21,183.16,316.21,183.16Z"/><path class="cls-25" d="M271.36,177c1.46-3.14,9.88-5.24,16.88-4.78a68.25,68.25,0,0,1,16.6,3.47,48.86,48.86,0,0,1,7.61,2.71c2.89,1.49,4.24,3.76,5.15,6.84,2.66,9,3.46,18.26,3.83,27.61a185.06,185.06,0,0,1-.1,22.59c-.14,1.65-.11,6.92-2.12,7.74a35.76,35.76,0,0,1-13.55,2.14c-1.74-.18-1.72-8.85-1.79-9.95-.4-6.54-.49-13.11-.53-19.66-.06-8.13.05-16.22-.53-24.34-.23-3.27-2.34-2.66-4.89-3-2.14-.29-4.28-.63-6.41-1C288.05,186.71,268.31,183.59,271.36,177Z"/><path class="cls-23" d="M306.75,214.92l.58,25.26a3.09,3.09,0,0,0,3,3.22h.15a43.65,43.65,0,0,0,6.12-.91,3.45,3.45,0,0,0,2.55-2.86c.9-5.06,1.69-12.72,1-25.17a2.07,2.07,0,0,0-2-2.16,2,2,0,0,0-1,.22A23.26,23.26,0,0,1,306.75,214.92Z"/><path class="cls-24" d="M298.41,175.61a3.41,3.41,0,0,1-.85,2.4c-.45.5-1.51-.12-1.51-.12s-6.85-2.55-8.29-2.13a2.61,2.61,0,0,1-.95-2.9C287.19,172.34,294.06,171.43,298.41,175.61Z"/><path class="cls-26" d="M296.32,173.5c5.56,3.07,12.83,5.46,14.75,12.18,1.5,5.22.57,10.73,1.6,16,.06.32.51.21.53-.07a63.19,63.19,0,0,0-.37-8.7c-.19-3.12-.4-6.37-1.66-9.27-2.36-5.44-9.48-8.51-14.75-10.38a.14.14,0,0,0-.1.25Z"/><path class="cls-26" d="M312.75,200.62c-.12.53-.42,4.8,1.05,3.86.58-.37.5-1.43.43-2s-.35-1.77-1.05-2.11c-.18-.08-.45.06-.37.29.17.46.5.8.65,1.28a3,3,0,0,1,.12,1.56c-.19.59-.26,0-.3-.33a4.67,4.67,0,0,1,0-.75v-1.73a.23.23,0,0,0-.45-.06Z"/><path class="cls-27" d="M259.58,192.67a7.08,7.08,0,0,0-4.1,3.84,2,2,0,0,0-.21.84,2.46,2.46,0,0,0,.16.76c.18.53.35,1.06.53,1.59a4.43,4.43,0,0,0,.77,1.59c.39.46,1,.67,1.42.18a8.41,8.41,0,0,0,1.21-1.81,8.77,8.77,0,0,0,.89-4.45,8.5,8.5,0,0,0-.37-2"/><path class="cls-28" d="M245.09,191.21c7.55-5.14,19.88-9.59,24.23-11.6L274,192.25c-7.1,3.3-23.42,10.14-29.83,10.1h0C249.5,201,245.09,191.21,245.09,191.21Z"/><path class="cls-28" d="M233.89,188.44a186.67,186.67,0,0,1-7.56-22.91l2.8-1.81a229.7,229.7,0,0,1,14,22.82s6.8,10.79,3.29,15h0a3.39,3.39,0,0,1-2.21.81C240,201.69,235.81,193,233.89,188.44Z"/><path class="cls-28" d="M280.76,168.29a15.18,15.18,0,0,1-.52,6.39c-.65,2.37-1.5,2.16-3.93,2.32-1.51.11-4.29,0-4.29,0s-1.14,2.43-1.22,2.69a1.88,1.88,0,0,0,0,.58,11.38,11.38,0,0,0,3.6,6.34,11.09,11.09,0,0,0,3.28,2.41,11.58,11.58,0,0,0,6.59.46,27.06,27.06,0,0,0,5.3-1.47,7.23,7.23,0,0,0,2.18-1.19c1.41-1.23,1.83-3.21,2.17-5a2.9,2.9,0,0,0-.12-2c-.23-.37-1-.65-1.41-.84-1.39-.64-2.59-.6-4-1.2-4.06-1.72-3.64-6.44-2.41-9.91"/><path class="cls-29" d="M275.85,177a16.88,16.88,0,0,0-7.64,1.45,92.79,92.79,0,0,0-12.7,7s3.81.06,3.62,13.19a4.07,4.07,0,0,1-1.39,3,120.49,120.49,0,0,0,11.63-6"/><path class="cls-28" d="M293.08,161.94l-6.77-13.27c-8.13-.45-13.08,10.07-15.08,13.93-.75,1.43-1.37,3.19-.62,4.62a5.42,5.42,0,0,0,3.13,2.17C277.24,170.66,290.8,174,293.08,161.94Z"/><path class="cls-28" d="M276.31,156c-1.51.91-5.12,1.93-5.44,2.73s2.8,2,4.38,2.66"/><path class="cls-29" d="M293.08,167.49c3.09,4.14,9.63,6,13.6,4.47,2-.77,1.84-3.2,1.32-4.12-2-3.68-4.45-5.93-7.91-8.68"/><path class="cls-30" d="M292.5,151l-7.2-6.22a11.21,11.21,0,0,0-5.13-1.91,5.23,5.23,0,0,0-4.78,2.23,2.91,2.91,0,0,0-.37,2.3,2.71,2.71,0,0,0,.92,1.29,3.63,3.63,0,0,0-.88.78,2.33,2.33,0,0,0-.55,1.77c.17,1.16,1.36,1.88,2.49,2.22a10.07,10.07,0,0,0,5.55,0c-.59,1.54-.58,4,4.68,4.82a1.88,1.88,0,0,0-1,2.47,1.86,1.86,0,0,0,1.56,1.13l-1.17,4.24a4.17,4.17,0,0,0-.2,2.24,3.16,3.16,0,0,0,2.2,2c1.46.46,5.23-1.57,5.77-4.11Z"/><path class="cls-31" d="M282.66,142.34c3.75-1,14-3.26,17.93,8.45,1.4,4.19,1.41,11.94-4.87,15.14l-5.25-5.42-7.88-16.09"/><path class="cls-29" d="M283.12,142l-2.68.63c2.91,9,6.48,18.63,13.1,25.36l2.85-1.74C290.53,160.54,286.17,150,283.12,142Z"/><path class="cls-28" d="M286.56,162.56a1.36,1.36,0,0,1,1.56-.1,1.75,1.75,0,0,1,.82,1.39,2.69,2.69,0,0,1-.41,1.59,3.19,3.19,0,0,1-2.72,1.55,2.65,2.65,0,0,1-2.45-1.83"/><path class="cls-32" d="M271.09,324.2s.6,12.07,1.49,19c0,0-4.73,4.51-7.06,5.76,0,0,14,1,13-2.83s-1-13.85,0-22.12"/><path class="cls-26" d="M261.44,352c-2.1.61.42,3.46,1.52,3.63a8,8,0,0,0,3.29-.45,61,61,0,0,1,12.58-2.07,1.32,1.32,0,0,0,.75-.2,1.52,1.52,0,0,0,.62-1.78,2.25,2.25,0,0,1-.39-1.28"/><path class="cls-33" d="M280.06,349.55c-.35-1.49-.07-6.61-2.05-6a3.52,3.52,0,0,1-4.86,1.09,4.06,4.06,0,0,1-.36-.26c-.25-.19-1.05-2.25-2.2-.82a32.06,32.06,0,0,1-5,4.32c-1,.81-5.22,2.75-5.18,4.06,0,1.62.7,2.56,2.31,2.68a16.31,16.31,0,0,0,5.47-1.19,40.16,40.16,0,0,1,10.21-1.63,2.07,2.07,0,0,0,1.57-.56A2,2,0,0,0,280.06,349.55Z"/><path class="cls-26" d="M271.53,343.18c1,2.41,6.72,3.38,7.19.13a.26.26,0,0,0-.44-.25,3.89,3.89,0,0,1-3.89,1.23c-1-.26-1.69-1.05-2.62-1.42C271.57,342.8,271.47,343,271.53,343.18Z"/><path class="cls-26" d="M266.16,346.79a11.4,11.4,0,0,1,1.3,1.3,6.19,6.19,0,0,0,1.17,1.28.29.29,0,0,0,.4-.1.26.26,0,0,0,0-.15c0-1.33-1.52-2.41-2.63-2.81a.29.29,0,0,0-.28.48Z"/><path class="cls-26" d="M267.63,345.86a3.61,3.61,0,0,1,1.38,1,10.47,10.47,0,0,0,1.08,1.13.28.28,0,0,0,.4,0,.27.27,0,0,0,.08-.19,2.31,2.31,0,0,0-.94-1.66,5.23,5.23,0,0,0-1.84-.81c-.36-.11-.51.45-.16.56Z"/><path class="cls-26" d="M268.75,344.86a5.37,5.37,0,0,1,1.59,1.21,8.25,8.25,0,0,0,1.29,1.35.37.37,0,0,0,.5-.12.38.38,0,0,0,.05-.19c0-1.57-1.78-2.63-3.08-3.1C268.61,343.82,268.28,344.62,268.75,344.86Z"/><path class="cls-34" d="M286.94,224c5.62,8.93-1.05,50.22-6.89,69.05,3.5,12.24-2.05,41-2.05,41a17.24,17.24,0,0,1-6.56.18c-.21-.79-5.9-41.41-5.26-49.17.83-10.09-5.61-42.78,2.64-53.15"/><path class="cls-32" d="M295.31,326.47s1.89,11.93,3.51,18.72c0,0-4.22,5-6.4,6.48,0,0,14.06-.49,12.64-4.21s-2.51-13.66-2.41-22"/><path class="cls-26" d="M287.43,353.51c-2.12.53.29,3.48,1.38,3.69a8,8,0,0,0,3.3-.33,61.33,61.33,0,0,1,12.66-1.57,1.5,1.5,0,0,0,.75-.17,1.55,1.55,0,0,0,.7-1.76,2.25,2.25,0,0,1-.34-1.29"/><path class="cls-33" d="M306.14,351.75c-.29-1.51.18-6.61-1.82-6.08a3.54,3.54,0,0,1-4.91.9c-.12-.09-.23-.17-.34-.27s-1-2.29-2.17-.9-2.86,2.43-5.17,4.11c-1.06.77-5.33,2.55-5.34,3.86,0,1.62.6,2.59,2.2,2.77a16.52,16.52,0,0,0,5.52-1,40.44,40.44,0,0,1,10.27-1.24,1.51,1.51,0,0,0,1.76-2.15Z"/><path class="cls-26" d="M297.85,345c.95,2.49,6.61,3.66,7.2.39a.27.27,0,0,0-.22-.3.26.26,0,0,0-.19.05,4,4,0,0,1-3.48,1.22c-1.24-.21-1.94-1.16-3-1.63a.21.21,0,0,0-.28.11.22.22,0,0,0,0,.16Z"/><path class="cls-26" d="M292.38,348.48a10.48,10.48,0,0,1,1.24,1.34,6.07,6.07,0,0,0,1.08,1.29c.16.12.47.05.47-.19,0-1.34-1.36-2.47-2.49-2.93a.29.29,0,0,0-.38.15A.29.29,0,0,0,292.38,348.48Z"/><path class="cls-26" d="M293.84,347.56c1.08.38,1.63,1.53,2.43,2.24.2.18.45,0,.45-.25a2.36,2.36,0,0,0-.86-1.64,5,5,0,0,0-1.79-.88c-.35-.12-.58.41-.23.53Z"/><path class="cls-26" d="M295.08,346.65a5.31,5.31,0,0,1,1.51,1.28,7.87,7.87,0,0,0,1.17,1.34.38.38,0,0,0,.52-.07.41.41,0,0,0,.07-.26c0-1.52-1.65-2.62-2.9-3.14a.46.46,0,1,0-.37.85Z"/><path class="cls-34" d="M300.33,225.15c6.54,8.27,6.23,32.71.54,69.38,4.8,11.8,2,38.3,2,38.3a13.59,13.59,0,0,1-6.6,1.39c-.29-.76-9.82-38.4-10-46.18-.25-10.12-10.16-41.93-3.07-53.13"/><path class="cls-35" d="M265.9,242.34a22.31,22.31,0,0,0,4.46,3.82,17.34,17.34,0,0,0,7.21,2c2.51.25,5,.24,7.54.58,1.91.26,3.79.73,5.72.83s3.75-.12,5.62-.17a10.59,10.59,0,0,0,4.77-.72,2.83,2.83,0,0,0,1.27-1.22,3.65,3.65,0,0,0-.68-3.45,15,15,0,0,0-5.58-4.79,31,31,0,0,0-7-2.47"/><path class="cls-31" d="M290.55,178.28a7.51,7.51,0,0,1-.48,1.3,6.5,6.5,0,0,1-.8,1.21,9.11,9.11,0,0,1-5.26,3.15,7.49,7.49,0,0,1-6.1-1.54,6,6,0,0,1-1.84-2.4c-.1-.26-.66-3-.22-3H272l-7.4,18.46c.55,26.26,0,46.23,0,46.23,4.55,3.61,7.76,3.85,21.19,5.09s16.55,2,20.87-2.21c-1.35-5.44.67-29.72-10.21-54.83-1.23-2.85,1.16-6.41-.42-9.25C295.5,179.52,292.78,178.93,290.55,178.28Z"/><g class="cls-36"><path class="cls-37" d="M305.35,216.46c-1.11-8.26-6.67-15.12-12.12-21.39a27,27,0,0,1,14.26,19.78"/><path class="cls-37" d="M294.86,196.68c-.31-.22-.11-.5-.25-.86-.77-2-1.9-4.36-1.1-6.36a7.33,7.33,0,0,1,1.19-1.87,5.14,5.14,0,0,1,1.38-1.25,4.07,4.07,0,0,1,3.69.07,12.15,12.15,0,0,1,3,2.33,15.3,15.3,0,0,0-6.21-.28,6.81,6.81,0,0,1,3.27,1.55c-1.54.42-3.3-.73-4.68.06l2,.9c-.92,0-1.6.84-2,1.65-.57,1,0,2-.31,3.18"/><path class="cls-37" d="M294.2,195.81a6.05,6.05,0,0,1,5.27-4.25,8.07,8.07,0,0,1,6.42,2.67,12.48,12.48,0,0,1,2.94,6.51,3,3,0,0,1-1.34-1.21,11.44,11.44,0,0,0-6.57-4.61,13.43,13.43,0,0,1,1.42,3.77,11.55,11.55,0,0,0-3.47-3.66c.46,1,.92,1.93,1.37,2.9-1.55-1.67-3.31-1.56-5.57-1.53"/></g><g class="cls-6"><path class="cls-38" d="M301.45,213.73c1.63,2.27,1.67,4.35,3.19,6.45-.39-2.25-.44-4.34-1-6.76,0,0-.77-1.18-1.72-2.37a6.23,6.23,0,0,1-2.71.27c-1.71-5.49-2.39-6.22-5.59-11-.27-.41-.55-.81-.81-1.23a88.44,88.44,0,0,1,5.37,15.57A11.65,11.65,0,0,0,301.45,213.73Z"/></g><path class="cls-28" d="M303.35,246.92l-5.05,4.76a.62.62,0,0,0-.22.35.64.64,0,0,0,.11.3c1.17,1.87,2.41,3.69,3.7,5.46a.48.48,0,0,0,.3.22.5.5,0,0,0,.35-.22,29.91,29.91,0,0,0,2.57-4,5.18,5.18,0,0,0,.46-.91,4.94,4.94,0,0,0,.2-1.48,34.55,34.55,0,0,0-.21-4.77"/><path class="cls-39" d="M296.09,249a67.47,67.47,0,0,0,6.71,11.35c.23.33.76,0,.55-.32-2.17-3.78-4.51-7.6-7-11.19a.16.16,0,0,0-.23,0,.17.17,0,0,0,0,.17Z"/><path class="cls-35" d="M284.34,275.78v-.66a8.21,8.21,0,0,0-.19-1.56l-2.64-14.79s-.06,13.22.41,17.32a88.55,88.55,0,0,1,.35,8.92C283,282.13,283.67,279,284.34,275.78Z"/><path class="cls-40" d="M296.07,335.13c2.66,0,5.06,0,7.3-1.47a9.39,9.39,0,0,0,0-2.8c-1,.33-5.27,1.87-7.81,1.74A10,10,0,0,0,296.07,335.13Z"/><path class="cls-40" d="M271.09,335.6c2.48.38,5.12.56,7.43-.53v-2.59l-3,.52a11.2,11.2,0,0,1-4.54.09A7.84,7.84,0,0,0,271.09,335.6Z"/><path class="cls-41" d="M297.88,207.33q5.25,7.78,11,15.21c.39.52,1.22,1,1.57.48a.87.87,0,0,0,.09-.55,13.43,13.43,0,0,0-1-4.13,168.85,168.85,0,0,0-8.11-18.5"/><path class="cls-28" d="M302.56,249c1.49-10.62,4.92-26.16,4.92-26.16s-6.38-14.54-10.61-20.29l8.95-11.2c4.64,7.91,12.71,26.92,12.71,30.13s-7.12,20.33-13,29.23"/><path class="cls-42" d="M300.26,208c.92,1.66,1.83,3.43,2.69,5.15a8.16,8.16,0,0,0,2.66-1.58,20.12,20.12,0,0,0,4-3.82,6.82,6.82,0,0,0,1.4-5.21,30.49,30.49,0,0,0-10.75,4.65Z"/><path class="cls-29" d="M296.07,180.05a12.67,12.67,0,0,1,6.29,3.67c2.61,2.76,7.1,14.13,9.52,19a10.58,10.58,0,0,1-3.46,4.82,15,15,0,0,1-9.23,3.9c-1.47-4.46-6.4-12.35-6.4-12.35"/><path class="cls-24" d="M301.17,179.92c-.58-.65-1.7-1.72-2.66-1.59a7.4,7.4,0,0,0-3.22,1.44c-4,3-4.68,8.53-4.18,13.17a25.72,25.72,0,0,0,1.77,7,18.61,18.61,0,0,0,1.31,2.74c.7,1.13,2.23,2.39,2.68,3.57-2-5.26-2.28-14.86-.18-20.94C297.56,182.82,299.59,181.19,301.17,179.92Z"/><path class="cls-24" d="M277.52,175.3c-1.73,1.5-3.71,2.77-5.14,4.55a30.93,30.93,0,0,0-3.78,6,42.08,42.08,0,0,0-3.8,13.46c-.53-5.08-1-10.32.47-15.19a15.19,15.19,0,0,1,4.07-6.56c1.41-1.31,4.92-3.84,7-2.78"/><path class="cls-30" d="M280.11,154.92a4.35,4.35,0,0,1,1.84,1.79c.38.69.35,1.44.65,2.12a.15.15,0,0,0,.26,0,3.1,3.1,0,0,0-.58-2.41,4.77,4.77,0,0,0-2-1.75c-.19-.08-.35.18-.16.28Z"/><path class="cls-30" d="M278.75,157.9c-.65.46-1.11,1.08-.7,1.85a.66.66,0,0,0,.76.24c.45-.17.51-.52.85-.8a.79.79,0,0,0-.91-1.29Z"/><path class="cls-43" d="M278.7,158.31c-.17.12-.29.29-.18.49a.19.19,0,0,0,.2.06c.11,0,.13-.14.22-.21s0-.49-.24-.34Z"/><path class="cls-42" d="M287.87,163.85c-.05-.68-.67-.74-1.19-.52a.72.72,0,0,0-.51.46c-.11.36.09.63-.18,1s-.92.7-1.13.18c-.06-.15-.31-.24-.4-.05-.35.78.7,1,1.24.73a1.78,1.78,0,0,0,.88-.81,1.3,1.3,0,0,0,.11-.48,1.3,1.3,0,0,1,0-.44c.05-.13.76-.43.86,0a.15.15,0,0,0,.18.11.15.15,0,0,0,.11-.11Z"/><path class="cls-42" d="M286.45,166.93c-.81.06-2.21.06-2.54-.8a1.66,1.66,0,0,0,.32,1.08,2.3,2.3,0,0,0,.72.47,1.56,1.56,0,0,0,1.41.08"/><path class="cls-42" d="M280.83,170.76c.85.05,3.07-.3,3.17-.22a2.28,2.28,0,0,1-1.08.75,18.11,18.11,0,0,1-2.13.67"/><path class="cls-44" d="M272.94,161.59a4,4,0,0,0-.81,3.47,2.48,2.48,0,0,0,2.37,1.37,9.75,9.75,0,0,0,3.83-1.16A28.69,28.69,0,0,1,272.94,161.59Z"/><g class="cls-45"><path class="cls-46" d="M277.43,167.18a1.93,1.93,0,0,0-.79-1.71,5.44,5.44,0,0,0-1.93-.83,4,4,0,0,0-1.33-.16,2.16,2.16,0,0,0-1.35.63,1.93,1.93,0,0,0-.4.78,2.45,2.45,0,0,0,1.16,2.87,4.4,4.4,0,0,0,3.86-.17"/></g><path class="cls-28" d="M221.78,155a17.6,17.6,0,0,0-1.66-2.27c-.75-1-.49-1.63-.06-1.78s2,1.53,3.05,2.39a21.39,21.39,0,0,1,2.85,3.71,3.62,3.62,0,0,1,2.11-.64c.82.16,2.37,2.92,2.58,4.49a21.45,21.45,0,0,1-.5,4.45l.84,2.84s-2.57,4-3.43,1.3-1.77-3.45-3.08-3.74c-1.06-.24-4.25-2.93-4.37-4.41a2,2,0,0,1,.61-1.21h0a21.78,21.78,0,0,1,2.34-2.36C223.13,157.19,222.08,155.64,221.78,155Z"/><path class="cls-47" d="M226,157c-.47.29-1.46.85-1.59,1.44a.73.73,0,0,0,.59.83c.41.07,1.71-.38,1.88-.21a4.43,4.43,0,0,1,.09.72,1.75,1.75,0,0,0,.63,1c.05,0,.11,0,.07-.06A2.43,2.43,0,0,1,227,159a.07.07,0,0,0-.05-.08c-.48-.14-1.16.17-1.64.2s-.73.06-.79-.48a.83.83,0,0,1,.31-.62,6.07,6.07,0,0,1,1.2-.94c.05,0,0-.12-.06-.09Z"/><path class="cls-47" d="M221.9,159.14a3.59,3.59,0,0,0,1.56,1.91,7.83,7.83,0,0,0,2.25.4c.5,0,1.12,0,1.23-.56s-.59-1.3-1.21-1.4c-.06,0-.09.07,0,.09.35.11,1.13.52,1.07,1s-.55.66-.87.72a4.39,4.39,0,0,1-1.53-.21,4.19,4.19,0,0,1-.87-.17,3.45,3.45,0,0,1-1.5-1.82.05.05,0,0,0-.1,0h0Z"/><path class="cls-47" d="M220.72,160.29a3.49,3.49,0,0,0,1.61,1.93,4.19,4.19,0,0,0,2.5.2m0-.09a6.21,6.21,0,0,1-2.19-.19,3.06,3.06,0,0,1-1.79-1.88c0-.06-.13,0-.11,0Z"/><path class="cls-47" d="M221.61,163.46a2.76,2.76,0,0,0,1.86.08v-.09a6.12,6.12,0,0,1-1.81-.09c-.06,0-.09.08,0,.1Z"/><path class="cls-16" d="M134.49,30.29a5,5,0,1,1-2.83-6.48l.05,0A5,5,0,0,1,134.49,30.29Z"/><polyline class="cls-48" points="127.75 27.86 128.87 30.34 132.6 28.03"/><path class="cls-16" d="M57.43,146.48a5,5,0,1,1-6.33-3.15l0,0A5,5,0,0,1,57.43,146.48Z"/><polyline class="cls-48" points="50.7 148.93 53.15 150.13 54.53 145.96"/><path class="cls-16" d="M100.74,200.72a5,5,0,1,1-3.14-6.34l.05,0A5,5,0,0,1,100.74,200.72Z"/><polyline class="cls-48" points="93.89 198.61 95.13 201.04 98.75 198.56"/><path class="cls-16" d="M287.18,67.64a7.6,7.6,0,1,1-10-4A7.59,7.59,0,0,1,287.18,67.64Z"/><polyline class="cls-49" points="277.25 72.28 281.15 73.77 282.7 67.23"/><path class="cls-16" d="M61.6,115.38a1.83,1.83,0,1,1-1.83-1.83,1.83,1.83,0,0,1,1.83,1.83Z"/><path class="cls-16" d="M318.4,83.31a1.83,1.83,0,1,1-1.83-1.83h0A1.83,1.83,0,0,1,318.4,83.31Z"/><path class="cls-16" d="M183.86,37.34A1.83,1.83,0,1,1,182,35.51a1.83,1.83,0,0,1,1.86,1.83Z"/><path class="cls-16" d="M85.31,99.13a2.92,2.92,0,1,1-2.92-2.92h0a2.91,2.91,0,0,1,2.92,2.9Z"/><path class="cls-16" d="M340.12,153.7a2.92,2.92,0,1,1-2.92-2.92h0a2.91,2.91,0,0,1,2.91,2.91Z"/><path class="cls-16" d="M48,99.13a2.87,2.87,0,1,1,0-.1Z"/><path class="cls-16" d="M32.64,229.48a2.92,2.92,0,1,1-2.92-2.92h0A2.92,2.92,0,0,1,32.64,229.48Z"/><path class="cls-50" d="M69.61,187.49a2.92,2.92,0,1,1-2.92-2.92h0A2.92,2.92,0,0,1,69.61,187.49Z"/><path class="cls-50" d="M315.05,123.28a4.49,4.49,0,1,1-4.5-4.48h0A4.49,4.49,0,0,1,315.05,123.28Z"/><path class="cls-50" d="M315.05,41.83a4.49,4.49,0,1,1-4.49-4.49h0A4.49,4.49,0,0,1,315.05,41.83Z"/><path class="cls-50" d="M26.71,273.86a4.49,4.49,0,1,1-4.49-4.49h0a4.49,4.49,0,0,1,4.48,4.48Z"/><path class="cls-50" d="M233.91,23.48A2.92,2.92,0,1,1,231,20.56h0a2.91,2.91,0,0,1,2.91,2.91Z"/><path class="cls-51" d="M352,220.18a2.92,2.92,0,1,1-2.93-2.91h0a2.91,2.91,0,0,1,2.92,2.9Z"/><path class="cls-16" d="M19.31,144.62a.58.58,0,0,1-.58-.58h0v-4.12a.58.58,0,0,1,1.16,0V144a.58.58,0,0,1-.54.62Z"/><path class="cls-16" d="M21.37,142.56H17.25a.58.58,0,1,1,0-1.16h4.12a.58.58,0,1,1,0,1.16Z"/><path class="cls-52" d="M47.68,184.91a.58.58,0,0,1-.58-.58h0v-4.11a.58.58,0,1,1,1.16,0h0v4.11A.58.58,0,0,1,47.68,184.91Z"/><path class="cls-52" d="M49.74,182.86H45.62a.59.59,0,0,1-.51-.66.58.58,0,0,1,.51-.51h4.12a.59.59,0,0,1,.51.66A.58.58,0,0,1,49.74,182.86Z"/><path class="cls-16" d="M331.23,203.9a.6.6,0,0,1-.58-.59V199.2a.59.59,0,0,1,.66-.51.58.58,0,0,1,.51.51v4.11a.58.58,0,0,1-.59.59Z"/><path class="cls-16" d="M333.29,201.84h-4.11a.59.59,0,0,1-.66-.51.59.59,0,0,1,.51-.66h4.26a.59.59,0,0,1,.51.66A.58.58,0,0,1,333.29,201.84Z"/><path class="cls-16" d="M277.52,121.38a.58.58,0,0,1-.58-.58v-4.12a.59.59,0,0,1,.66-.51.58.58,0,0,1,.51.51v4.12a.58.58,0,0,1-.58.58Z"/><path class="cls-16" d="M279.58,119.32h-4.11a.58.58,0,0,1,0-1.16h4.11a.58.58,0,1,1,0,1.16Z"/><g class="cls-53"><path class="cls-4" d="M76.9,37l-1.7,1a.75.75,0,0,1-1-.24.76.76,0,0,1,.24-1l1.69-1.06a.77.77,0,0,1,1,.27.75.75,0,0,1-.27,1Z"/><path class="cls-4" d="M72.85,39.78s-.77.61-1.5,1.26-1.45,1.32-1.45,1.32a.72.72,0,0,1-1-.19.71.71,0,0,1,0-.81s.73-.71,1.49-1.38,1.55-1.3,1.55-1.3h0a.74.74,0,0,1,1,.22.73.73,0,0,1-.1.93Z"/><path class="cls-4" d="M67.84,44.46s-.67.72-1.3,1.47-1.24,1.52-1.24,1.52a.69.69,0,0,1-1,.16l0,0a.7.7,0,0,1-.15-1l0,0s.61-.8,1.26-1.57,1.33-1.53,1.33-1.53h0a.72.72,0,0,1,1,0,.7.7,0,0,1,0,1h0Z"/><path class="cls-4" d="M63.57,49.83s-.56.81-1.07,1.65-1,1.69-1,1.69a.67.67,0,0,1-1.17-.65s.48-.89,1-1.75,1.09-1.7,1.09-1.7h0a.69.69,0,0,1,1.14.77Z"/><path class="cls-4" d="M60.17,55.79s-.42.88-.78,1.8-.68,1.83-.68,1.83a.65.65,0,0,1-.8.42h0a.65.65,0,0,1-.41-.82s.31-1,.69-1.91.79-1.86.79-1.86h0a.66.66,0,1,1,1.21.55Z"/><path class="cls-4" d="M57.93,62.23l-.13.6c-.07.36-.16.84-.23,1.32-.15,1-.2,1.92-.2,1.92A.63.63,0,1,1,56.11,66h0s.06-1,.2-2c.07-.51.16-1,.24-1.39l.12-.62a.64.64,0,1,1,1.26.26h0Z"/><path class="cls-4" d="M57.39,69l.06.6a8.06,8.06,0,0,0,.2,1.31,14.93,14.93,0,0,0,.48,1.86.61.61,0,0,1-.38.76h0a.61.61,0,0,1-.76-.38h0a17.28,17.28,0,0,1-.52-2c-.1-.51-.18-1-.23-1.4s-.07-.64-.07-.64a.62.62,0,1,1,1.22-.22.41.41,0,0,1,0,.11Z"/><path class="cls-4" d="M59.24,75.39l.3.53c.18.31.43.71.71,1.11s.77,1,1.19,1.51a.58.58,0,0,1-.86.78h0a18.07,18.07,0,0,1-1.28-1.61,13.43,13.43,0,0,1-.77-1.19L58.2,76a.59.59,0,0,1,1-.59h0Z"/><path class="cls-4" d="M63.52,80.55l.48.39c.28.22.67.51,1.07.79a19.12,19.12,0,0,0,1.65,1,.56.56,0,0,1,.21.76.56.56,0,0,1-.76.2h0s-.89-.5-1.73-1.07c-.43-.29-.84-.59-1.14-.83l-.5-.39a.57.57,0,0,1-.1-.79h0a.57.57,0,0,1,.8-.1h0Z"/><path class="cls-4" d="M69.33,84.09s.89.4,1.81.73,1.87.59,1.87.59a.53.53,0,1,1-.08,1.06.66.66,0,0,1-.2-.06s-1-.26-1.94-.6-1.9-.74-1.9-.74h0a.54.54,0,1,1,.43-1h0Z"/><path class="cls-4" d="M75.87,86s1,.16,1.94.24,2,.11,2,.11a.51.51,0,0,1,.2,1,.67.67,0,0,1-.2,0s-1,0-2-.09-2-.24-2-.24h0a.52.52,0,0,1-.43-.6h0a.51.51,0,0,1,.56-.44h-.07Z"/><path class="cls-4" d="M82.69,86.27s1-.09,1.94-.26,1.91-.41,1.91-.41a.49.49,0,0,1,.24.94s-1,.26-2,.43-2,.29-2,.29h0a.51.51,0,0,1-.54-.45.49.49,0,0,1,.43-.54h0Z"/><path class="cls-4" d="M89.34,84.73s.92-.34,1.8-.77,1.72-1,1.72-1a.45.45,0,0,1,.62.16h0a.47.47,0,0,1-.15.63s-.87.53-1.79,1a18.46,18.46,0,0,1-1.86.81h0a.47.47,0,1,1-.34-.88h0Z"/><path class="cls-4" d="M95.2,81.34l.44-.41a9.71,9.71,0,0,0,1.89-2.59.44.44,0,0,1,.59-.19.43.43,0,0,1,.19.58h0a11.06,11.06,0,0,1-1.12,1.75,14.26,14.26,0,0,1-1,1.06L95.8,82a.45.45,0,0,1-.61-.65h0Z"/><path class="cls-4" d="M98.38,75.67a4.7,4.7,0,0,1,.05-.6,11.3,11.3,0,0,0-.05-1.3A10.8,10.8,0,0,0,98,71.89a.4.4,0,0,1,.25-.51h0a.41.41,0,0,1,.52.26h0a11.31,11.31,0,0,1,.43,2,8.51,8.51,0,0,1,.06,1.43v.65h0a.42.42,0,1,1-.84-.1Z"/><path class="cls-4" d="M96.83,69.29s-.14-.22-.35-.49a7.65,7.65,0,0,0-2.45-2,.39.39,0,0,1,.35-.69h0a8.46,8.46,0,0,1,1.72,1.18,7.87,7.87,0,0,1,1,1c.25.32.38.52.38.52h0a.39.39,0,0,1-.11.54h0a.4.4,0,0,1-.55-.11Z"/><path class="cls-4" d="M91.33,65.83l-.6-.1c-.36,0-.84-.1-1.33-.13a16.68,16.68,0,0,0-2,0,.36.36,0,0,1-.39-.33h0a.37.37,0,0,1,.33-.39h0a16.68,16.68,0,0,1,2,0,11.32,11.32,0,0,1,1.41.13l.62.1a.38.38,0,0,1,.3.45.39.39,0,0,1-.42.3h0Z"/><path class="cls-4" d="M84.55,66.07s-1,.21-1.89.5-1.86.66-1.86.66a.34.34,0,0,1-.42-.23.33.33,0,0,1,.17-.4s.93-.38,1.9-.68,2-.54,2-.54h0a.35.35,0,0,1,.42.26.36.36,0,0,1-.26.43Z"/><path class="cls-4" d="M78.11,68.45s-.87.45-1.72,1l-1.66,1.06a.29.29,0,0,1-.42-.06h0a.32.32,0,0,1,.07-.44s.83-.58,1.69-1.1,1.75-1,1.75-1a.33.33,0,0,1,.32.58h0Z"/><path class="cls-4" d="M72.38,72.27s-.77.63-1.48,1.31S69.5,75,69.5,75a.29.29,0,0,1-.41-.41s.68-.74,1.41-1.43S72,71.81,72,71.81a.3.3,0,1,1,.4.46h0Z"/><path class="cls-4" d="M67.58,77.23s-.61.78-1.16,1.6-1,1.67-1,1.67a.26.26,0,0,1-.37.09.26.26,0,0,1-.09-.36h0s.49-.87,1-1.71a15.41,15.41,0,0,1,1.17-1.63.28.28,0,0,1,.4,0,.29.29,0,0,1,0,.36Z"/><path class="cls-4" d="M64,83.13s-.41.9-.75,1.83-.62,1.87-.62,1.87a.24.24,0,1,1-.47-.13s.27-1,.62-1.92.75-1.86.75-1.86a.26.26,0,0,1,.34-.13.24.24,0,0,1,.14.31v0Z"/><path class="cls-4" d="M62,89.71s-.18,1-.28,2-.13,2-.13,2a.22.22,0,0,1-.44,0h0a19.19,19.19,0,0,1,.12-2c.12-1,.27-2,.27-2a.23.23,0,0,1,.26-.2h0a.24.24,0,0,1,.2.27Z"/><path class="cls-4" d="M61.61,96.61s.07,1,.2,2,.33,2,.33,2a.2.2,0,0,1-.16.23.22.22,0,0,1-.23-.15s-.2-1-.34-2-.21-2-.21-2a.2.2,0,0,1,.18-.22h0a.22.22,0,0,1,.23.18Z"/><path class="cls-4" d="M62.84,103.42l.6,1.89c.33.93.74,1.83.74,1.83a.18.18,0,0,1-.08.23.18.18,0,0,1-.23-.08h0s-.42-.91-.76-1.85l-.62-1.9a.2.2,0,0,1,.17-.21.19.19,0,0,1,.18.09Z"/><path class="cls-4" d="M65.6,109.74c.36.56.74,1.09,1.15,1.61.62.78,1.31,1.48,1.31,1.48a.14.14,0,1,1-.2.2,17.17,17.17,0,0,1-1.34-1.49c-.64-.78-1.19-1.62-1.19-1.62a.16.16,0,0,1,0-.22.17.17,0,0,1,.23,0Z"/><path class="cls-4" d="M70.29,114.78s.79.6,1.64,1.12,1.73,1,1.73,1a.12.12,0,0,1-.1.22,18.86,18.86,0,0,1-1.76-1c-.86-.56-1.66-1.12-1.66-1.12a.13.13,0,0,1,0-.18h0a.13.13,0,0,1,.18,0Z"/><path class="cls-4" d="M76.39,118.05s.93.34,1.89.62,1.92.5,1.92.5a.1.1,0,0,1,.07.12.09.09,0,0,1-.11.07h0s-1-.22-1.94-.5-1.9-.61-1.9-.61a.11.11,0,0,1-.07-.14h0A.11.11,0,0,1,76.39,118.05Z"/><path class="cls-4" d="M83.13,119.73s1,.15,2,.24l2,.17a.07.07,0,0,1,.06.07.06.06,0,0,1-.06.06h0a16.48,16.48,0,0,1-2-.14c-1-.14-2-.24-2-.24a.09.09,0,0,1-.08-.09.07.07,0,0,1,.09-.07h0Z"/><path class="cls-4" d="M90.07,120.23h2c1,0,2-.09,2-.09h0s-1,.07-2,.1-2,0-2,0a.06.06,0,0,1,0-.12Z"/><path class="cls-4" d="M97,119.88l2-.24,2-.29h0l-2,.3-2,.25h0Z"/><polygon class="cls-4" points="103.92 118.81 105.88 118.37 103.93 118.83 103.92 118.82 103.92 118.81 103.92 118.81"/></g><path class="cls-4" d="M86.18,10.42C86.27,10.21,75.33,17,75.33,17l2.84,18.42,5.37-13.78L97.67,19,117.8,0Z"/><polygon class="cls-54" points="117.8 0 78.17 35.41 83.54 21.63 117.8 0"/><polygon class="cls-55" points="117.8 0 65.38 11.13 75.33 16.99 117.8 0 83.54 21.63 100.47 32.09 117.8 0"/></g></svg>