<svg id="Layer_1" data-name="Layer 1" xmlns="http://www.w3.org/2000/svg" xmlns:xlink="http://www.w3.org/1999/xlink" viewBox="0 0 1353.8 862.66"><defs><style>.cls-1,.cls-10,.cls-11,.cls-15,.cls-17,.cls-19,.cls-24,.cls-26,.cls-29,.cls-31,.cls-33,.cls-7{fill:none;}.cls-2{fill:#5d54c7;}.cls-3{fill:#7b73c7;}.cls-4{fill:#3a69fd;}.cls-5{fill:#fff;}.cls-6{fill:#c9c9f2;}.cls-11,.cls-24,.cls-7{stroke:#4f46c2;}.cls-10,.cls-11,.cls-15,.cls-17,.cls-19,.cls-24,.cls-26,.cls-29,.cls-31,.cls-33,.cls-7{stroke-linecap:round;stroke-linejoin:round;}.cls-33,.cls-7{stroke-width:3.04px;}.cls-8{fill:#8b88d1;}.cls-9{fill:#aaa8ea;}.cls-10{stroke:#8b88d1;stroke-width:1.01px;}.cls-11{stroke-width:12px;}.cls-12{fill:#fcbdab;}.cls-13{clip-path:url(#clip-path);}.cls-14{fill:#cc3d3d;}.cls-15{stroke:#bf9182;stroke-width:1.91px;}.cls-16{fill:#ffc74d;}.cls-17,.cls-19,.cls-26,.cls-29{stroke:#0d2547;}.cls-17{stroke-width:6.01px;}.cls-18{fill:#54b7cb;}.cls-19{stroke-width:4.71px;}.cls-20{fill:#0d2547;}.cls-21{clip-path:url(#clip-path-2);}.cls-22{fill:#d1154d;}.cls-23{fill:#babaf2;}.cls-24{stroke-width:4.05px;}.cls-25{fill:#4f46c2;}.cls-26{stroke-width:5.38px;}.cls-27{clip-path:url(#clip-path-3);}.cls-28{fill:#d12e5f;}.cls-29{stroke-width:4.47px;}.cls-30{clip-path:url(#clip-path-4);}.cls-31{stroke:#aaa8ea;stroke-width:1.78px;}.cls-32{fill:#f83e52;}.cls-33{stroke:#5d54c7;}</style><clipPath id="clip-path"><path class="cls-1" d="M152.36,857.25C142.65,810.79,108.2,637,133.24,623.93c29.13-15.18,172.73-13.9,193.28,0,16.72,11.31-11.44,186.64-19.27,233.32C306,864.46,153.86,864.46,152.36,857.25Z"/></clipPath><clipPath id="clip-path-2"><path class="cls-1" d="M283.15,687.6c0,24.34-25.18,44.07-56.23,44.07S170.7,711.94,170.7,687.6,283.15,663.25,283.15,687.6Z"/></clipPath><clipPath id="clip-path-3"><path class="cls-1" d="M1263.21,853.87H1112.66s-50.46-211.46-21.52-226.54c29.12-15.18,172.73-13.9,193.28,0C1303.71,640.38,1263.21,853.87,1263.21,853.87Z"/></clipPath><clipPath id="clip-path-4"><path class="cls-1" d="M1111.88,328.36H971.62S912.69,161.62,941.52,145c29.56-17.06,179.85-15.61,200.47,0C1161,159.39,1111.88,328.36,1111.88,328.36Z"/></clipPath></defs><title>Facebook Marketing</title><path class="cls-2" d="M287.75,170.15H470.27A45.79,45.79,0,0,1,516,215.93v11.56a26.18,26.18,0,0,1-26.18,26.18H287.75V170.15Z"/><path class="cls-3" d="M198.39,201.43c12.88-33.35,70-32,70-32s49-3,61.08,20.92S371.55,407.5,371.55,407.5H181.41S185.67,234.38,198.39,201.43Z"/><path class="cls-2" d="M197.74,107.37s-2.53-29.16-14-22.84c-12.4,6.82,7.44,20.12,7.44,20.12s-12.78-2.23-11.46,5.71C181.36,120.31,197.74,107.37,197.74,107.37Z"/><circle class="cls-4" cx="384.52" cy="246.77" r="106.3" transform="translate(-61.87 344.17) rotate(-45)"/><rect class="cls-5" x="316.56" y="229.26" width="45.6" height="73.45" rx="6.87"/><path class="cls-5" d="M440.11,229.26h-32V204.53a17.91,17.91,0,0,0-17.9-17.91h0a7.57,7.57,0,0,0-7.57,7.57h0v19.14a7.87,7.87,0,0,1-2.37,5.64l-8.16,8a7.86,7.86,0,0,0-2.38,5.63V289a7.88,7.88,0,0,0,7.88,7.88h54a7.89,7.89,0,0,0,7.6-5.8l12.1-44.18a12.35,12.35,0,0,0-11.2-17.64Z"/><path class="cls-2" d="M244.05,166s-21.79,8.17-26.83-12.26-19.57-10.69-22.95-36,19.41-54.67,41.51-44.37S275.94,152.84,244.05,166Z"/><path class="cls-6" d="M273.31,69.15s29.46,40.66,25.54,70.45a10.66,10.66,0,0,1-5.2,8.26c-8.11,4.43-25.81,10.72-49.77-.17-42.77-19.44-31.79-55.91-31.79-55.91Z"/><path class="cls-6" d="M231.76,130.35s-7.62-13.28-16.9-6.36,5.74,23.62,15.35,17.71c0,0,12.15,14.35,12.15,28.52,5.91,27,71.63,43.91,46.07,0,0,0-8.06-9.41-7.09-19.43Z"/><path class="cls-2" d="M212.62,121.75S228,137,235.4,129.6s-19.61-17.6-14.8-29.11c0,0,50.45-4.13,66.65-31s-1-56.53-44.89-31.22S204.13,119.4,212.62,121.75Z"/><path class="cls-5" d="M258.38,131.69c1.5-4.71,24.15-14,27.91-12.48,2.6,1.1,7,15.79-3.4,21.33C268.59,148.12,257.28,135.15,258.38,131.69Z"/><path class="cls-2" d="M251.27,114a3.65,3.65,0,1,1,0-5.16h0a3.65,3.65,0,0,1,0,5.15Z"/><polyline class="cls-7" points="276.65 100.11 273.3 98.92 274.5 95.57"/><path class="cls-7" d="M241.86,100.11s-8.27,1.48-5.74,9.07"/><path class="cls-7" d="M265,86.43s5.1-6.67,10.69-.94"/><path class="cls-6" d="M347.65,329.79v54.42h62.77a35.94,35.94,0,0,0,35.94-35.94h0V331.69a6.7,6.7,0,0,0-6.71-6.71c-13.43,3.86-24.84,8.95-38.85,6.59V317.39a14.68,14.68,0,0,0-14.68-14.68h-5.06a5.08,5.08,0,0,0-5.06,5.06V330Z"/><path class="cls-6" d="M507.51,258.6H478.43a19.63,19.63,0,0,1-18.48-13l-7.79-21.78a19.62,19.62,0,0,1-.76-10.52l1.66-8.15a19.63,19.63,0,0,1,19.24-15.72h35.21C525.08,189.42,530.64,258.6,507.51,258.6Z"/><path class="cls-6" d="M503.39,192.71V170.15c0-1.64-2-5-7.33-5h-5.82A10.81,10.81,0,0,0,479.42,176v16.81Z"/><path class="cls-8" d="M354.23,320.94H176.75l-2.63,20.26a56,56,0,0,0,55.6,63.26H354.23Z"/><rect class="cls-9" x="299.06" y="317.4" width="58.38" height="90.1" rx="5.82"/><path class="cls-8" d="M241.3,169.42h0a25,25,0,0,1,24.95,25.05c0,.65,0,1.3-.08,1.95l-16.81,208H229.72a56.09,56.09,0,0,1-55.6-63.26L190.62,214A51.1,51.1,0,0,1,241.3,169.42Z"/><path class="cls-10" d="M280.22,152.72c-9.23,1.87-21.6,1.67-36.34-5"/><line class="cls-11" x1="133.95" y1="407.5" x2="426.48" y2="407.5"/><path class="cls-3" d="M297.85,622.87h0a25,25,0,0,0-18,30.43c.15.62.34,1.23.54,1.83l98.24,171.14,79.77-23.76c-1.92-14.51-62.32-94.14-100.46-149C335.61,625.33,322.74,616.54,297.85,622.87Z"/><polygon class="cls-12" points="254.64 614.52 205.45 614.52 211.03 594.45 249.06 594.45 254.64 614.52"/><path class="cls-3" d="M276.55,537.46c0,25.68-22.85,54.59-48.54,54.59s-44.47-28.91-44.47-54.59a46.51,46.51,0,0,1,93-1.93c0,.64,0,1.29,0,1.93Z"/><ellipse class="cls-6" cx="268.69" cy="555.68" rx="13.66" ry="10.32" transform="matrix(0.31, -0.95, 0.95, 0.31, -342.82, 639.61)"/><circle class="cls-6" cx="230.05" cy="537.46" r="39.01"/><path class="cls-6" d="M226.68,603.06c-30.89,0-35.39-61.06-35.39-61.06H268.8s-5.15,59.94-35.39,61Z"/><ellipse class="cls-6" cx="191.15" cy="555.66" rx="10.32" ry="13.66" transform="matrix(0.95, -0.31, 0.31, 0.95, -162.27, 86.2)"/><polyline class="cls-7" points="245.5 559.01 242.96 556.52 245.45 553.99"/><polyline class="cls-7" points="213.65 559.01 216.19 556.52 213.7 553.99"/><path class="cls-3" d="M160.56,622.87h0a25,25,0,0,1,18,30.44c-.16.61-.34,1.22-.54,1.82L79.77,826.27,0,802.51c1.92-14.51,62.33-94.14,100.46-149C122.8,625.33,135.67,616.54,160.56,622.87Z"/><path class="cls-3" d="M200.79,537.13s.16,19.39-4.24,19.37c-7.19,0-1.79-12.81-9-15.85S195,525.1,200.79,537.13Z"/><path class="cls-3" d="M257.76,537.13s-.15,19.39,4.24,19.37c7.19,0,1.79-12.81,9-15.85S263.53,525.1,257.76,537.13Z"/><path class="cls-2" d="M152.36,857.25C142.65,810.79,108.2,637,133.24,623.93c29.13-15.18,172.73-13.9,193.28,0,16.72,11.31-11.44,186.64-19.27,233.32C306,864.46,153.86,864.46,152.36,857.25Z"/><g class="cls-13"><path class="cls-14" d="M196.2,613.12,228.87,607l34.68,6.17s7.57,35.15-33.64,35.15S196.2,613.12,196.2,613.12Z"/></g><path class="cls-15" d="M240.42,582.49c0,4.38-4.64,7.94-10.37,7.94s-10.38-3.56-10.38-7.94"/><path class="cls-3" d="M191.29,533c0,8.16,77.51,8.16,77.51,0l.26-13.29L251.88,498.5l-37.46-2.24-23.13,20.92Z"/><path class="cls-7" d="M206.84,551c1.09-6.25,8.08-6.75,10.41-3.68"/><path class="cls-7" d="M252.22,551c-1.09-6.25-8.08-6.75-10.41-3.68"/><circle class="cls-16" cx="228.45" cy="672.92" r="109.46"/><polyline class="cls-17" points="266.32 651.37 257.13 642.18 266.32 632.99"/><polyline class="cls-17" points="187.53 631.9 196.72 641.09 187.53 650.28"/><path class="cls-18" d="M145.66,643.47a13.52,13.52,0,1,0,7.86,25.88c7.15-2.17,27.62-22.51,27.62-22.51S152.81,641.3,145.66,643.47Z"/><path class="cls-18" d="M311.55,645.49a13.52,13.52,0,0,1-8.49,25.68h0C296,668.83,276,648,276,648S304.45,643.15,311.55,645.49Z"/><path class="cls-19" d="M278.22,613.93a12.44,12.44,0,0,0-12.44-12.44h0"/><path class="cls-19" d="M175.63,613.93a12.44,12.44,0,0,1,12.42-12.44h0"/><path class="cls-20" d="M283.15,687.6c0,24.34-25.18,44.07-56.23,44.07S170.7,711.94,170.7,687.6,283.15,663.25,283.15,687.6Z"/><g class="cls-21"><ellipse class="cls-22" cx="226.92" cy="722.99" rx="36.77" ry="15.34"/><ellipse class="cls-5" cx="226.92" cy="667.74" rx="68.64" ry="16.26"/></g><path class="cls-3" d="M114.69,731.8,0,802.51H0C0,841.9,42.58,866.58,76.77,847l111.28-63.77Z"/><path class="cls-23" d="M133.66,713c-6.91,1.48-5.83,11.84-.74,19.44l-9,5.82,64.14,45,12.51,2.68a28.53,28.53,0,0,0,33.35-22.71h0l2.46-12.93a5.34,5.34,0,0,0-4.24-6.23c-11,1-56.67-1.49-67.25-5.41C152.78,734.39,140.74,726.55,133.66,713Z"/><line class="cls-24" x1="106.47" y1="736.87" x2="18.13" y2="791.33"/><path class="cls-3" d="M340.72,730l117.69,72.56h0c0,39.39-42.58,64.07-76.76,44.48L270.36,783.22Z"/><path class="cls-6" d="M329.56,713c6.9,1.48,4.4,11.2-.7,18.8l11,7.59-69.49,43.83-12.5,2.68a28.54,28.54,0,0,1-33.36-22.71l-2.45-12.93a5.33,5.33,0,0,1,4.22-6.23h0c11.05,1,56.67-1.49,67.25-5.41C305.63,734.39,322.47,726.55,329.56,713Z"/><line class="cls-24" x1="347.85" y1="734.35" x2="440.28" y2="791.33"/><line class="cls-11" x1="82.94" y1="857.25" x2="375.47" y2="857.25"/><path class="cls-2" d="M674.46,554.26s-8-12.37,0-18.93c0,0-6.65-27.14,20.18-28.82,0,0,15.36-22.81,41,.83,0,0,33.41-3,38.81,31.26,0,0,1.33,22.56-3.39,35.55Z"/><path class="cls-3" d="M767.69,653.59c-12.88-33.35-70-32-70-32s-49-3-61.08,20.91-33.42,214.76-33.42,214.76l194.53-3S780.41,686.54,767.69,653.59Z"/><path class="cls-2" d="M768.34,559.54s2.52-29.17,14-22.84c12.4,6.82-7.44,20.12-7.44,20.12s12.78-2.24,11.46,5.71C784.72,572.48,768.34,559.54,768.34,559.54Z"/><path class="cls-2" d="M722,618.17s21.79,8.16,26.83-12.27,19.57-10.68,22.94-36-19.4-54.67-41.5-44.38S690.14,605,722,618.17Z"/><path class="cls-6" d="M692.77,521.31S663.31,562,667.23,591.77a10.68,10.68,0,0,0,5.2,8.26c8.1,4.43,25.81,10.72,49.77-.17C765,580.42,754,543.94,754,543.94Z"/><path class="cls-6" d="M734.32,582.52s7.62-13.29,16.9-6.37-5.74,23.62-15.36,17.72c0,0-12.14,14.34-12.14,28.51-5.91,27-71.63,43.92-46.07,0,0,0,8.06-9.4,7.09-19.43Z"/><path class="cls-2" d="M753.46,573.91s-15.38,15.25-22.78,7.85,7.17-20.44,2.36-32c0,0-24.07-1.66-40.27-28.49,0,0-6.2-28.89,37.67-3.58S761.94,571.56,753.46,573.91Z"/><path class="cls-8" d="M700,580.6c1.52-7.69-10.54-18-17.66-9.38-1.8,2.17-9.72,14.45-1.45,18.09C695.68,595.84,699.27,584.16,700,580.6Z"/><path class="cls-25" d="M711.5,567.76a3.65,3.65,0,1,0,0-5.16h0a3.65,3.65,0,0,0,0,5.15Z"/><path class="cls-25" d="M687.78,552.48a3.65,3.65,0,1,0,0-5.16h0a3.65,3.65,0,0,0,0,5.15Z"/><path class="cls-7" d="M720.91,553.85s8.27,1.48,5.74,9.07"/><path class="cls-7" d="M701.05,538.6s-5.1-6.67-10.69-1"/><path class="cls-10" d="M685.86,604.88c9.23,1.87,21.6,1.68,36.34-5"/><path class="cls-3" d="M609.1,521.31C600.65,499.59,628.33,441,628.33,441l-24.58-56.19s-80.1,127.19-80.1,160,98.84,165.41,98.84,165.41l55.16-87.8S617.54,543,609.1,521.31Z"/><path class="cls-3" d="M812.31,388.9l-24.53,58s26.44,57.2,19.24,80.27-68.56,101.07-68.56,101.07l40.67,92.42S898.05,586,892.47,550.65,812.31,388.9,812.31,388.9Z"/><polygon class="cls-6" points="792.63 458.24 828.35 416.78 812.31 388.9 787.78 446.92 792.63 458.24"/><polygon class="cls-6" points="590.14 407.05 619.86 461.12 628.33 441.04 603.75 384.85 590.14 407.05"/><circle class="cls-16" cx="707.96" cy="381.9" r="106.3" transform="translate(-62.69 612.46) rotate(-45)"/><circle class="cls-20" cx="744.21" cy="353.82" r="7.77" transform="translate(275.71 1031.72) rotate(-80.78)"/><circle class="cls-20" cx="672.65" cy="351.78" r="7.79" transform="translate(218.06 959.69) rotate(-80.82)"/><path class="cls-26" d="M755.18,317.41A14.23,14.23,0,0,0,741,303.18"/><path class="cls-26" d="M660.74,317.41A14.23,14.23,0,0,1,675,303.18h0"/><ellipse class="cls-20" cx="707.96" cy="414.76" rx="27.53" ry="32.45"/><line class="cls-11" x1="558.52" y1="857.25" x2="851.05" y2="857.25"/><path class="cls-3" d="M1259.58,620.51h0a25,25,0,0,0-24.95,25c0,.65,0,1.3.08,2L1249.94,836a20.88,20.88,0,0,0,21.17,19.19l42.28-.77a20.86,20.86,0,0,0,20.48-21.23,19.77,19.77,0,0,0-.2-2.55L1310.27,665A51.11,51.11,0,0,0,1259.58,620.51Z"/><path class="cls-2" d="M1228.73,513.52c2.25-21.37-34.24-33.29-68.41-29-37.5,4.72-16,40.06-16,40.06L1227,540.86s5.92,6.25,9.87-9.48C1239.54,520.53,1233,515.56,1228.73,513.52Z"/><polygon class="cls-12" points="1212.53 617.92 1163.34 617.92 1168.93 597.85 1206.95 597.85 1212.53 617.92"/><path class="cls-2" d="M1234.45,540.86c0,25.68-22.86,54.59-48.55,54.59s-44.47-28.91-44.47-54.59a46.51,46.51,0,0,1,93,0Z"/><ellipse class="cls-6" cx="1226.6" cy="559.1" rx="13.66" ry="10.32" transform="matrix(0.31, -0.95, 0.95, 0.31, 316, 1553.06)"/><circle class="cls-6" cx="1187.94" cy="540.86" r="39.01"/><path class="cls-6" d="M1184.57,606.46c-30.89,0-35.38-61.06-35.38-61.06h77.5s-5.15,59.94-35.39,61.05Z"/><ellipse class="cls-6" cx="1149.03" cy="559.03" rx="10.32" ry="13.66" transform="matrix(0.95, -0.31, 0.31, 0.95, -116.48, 382.21)"/><path class="cls-3" d="M1118.45,626.27h0a25,25,0,0,1,18,30.43c-.16.61-.34,1.23-.55,1.83l-98.25,171.14-79.77-23.76c1.93-14.51,62.33-94.15,100.46-149C1080.69,628.73,1093.56,619.93,1118.45,626.27Z"/><path class="cls-2" d="M1158.68,540.53s.16,19.39-4.24,19.37c-7.19,0-1.79-12.81-9-15.85S1152.91,528.5,1158.68,540.53Z"/><path class="cls-2" d="M1215.66,540.53s-.16,19.39,4.23,19.37c7.2,0,1.8-12.81,9-15.85S1221.42,528.5,1215.66,540.53Z"/><path class="cls-2" d="M1263.21,853.87H1112.66s-50.46-211.46-21.52-226.54c29.12-15.18,172.73-13.9,193.28,0C1303.71,640.38,1263.21,853.87,1263.21,853.87Z"/><g class="cls-27"><path class="cls-12" d="M1154.09,616.51l32.67-6.17,34.68,6.17s7.57,35.16-33.64,35.16S1154.09,616.51,1154.09,616.51Z"/></g><path class="cls-15" d="M1198.31,585.89c0,4.38-4.64,7.94-10.37,7.94s-10.38-3.56-10.38-7.94"/><path class="cls-2" d="M1149.19,536.35c0,8.15,77.5,8.15,77.5,0l.26-13.29-17.18-21.22-37.46-2.23-23.12,20.92Z"/><path class="cls-7" d="M1164.73,554.4c1.09-6.26,8.08-6.75,10.42-3.68"/><path class="cls-7" d="M1198.31,553c5.85,2.47,10.06-3.13,8.75-6.75"/><circle class="cls-2" cx="1175.15" cy="559.9" r="3.65"/><circle class="cls-2" cx="1201.26" cy="559.9" r="3.65"/><circle class="cls-28" cx="1189.5" cy="675.02" r="106.3" transform="translate(-128.92 1038.81) rotate(-45)"/><path class="cls-3" d="M1072.58,735.2,957.89,805.91h0c0,39.39,42.59,64.07,76.77,44.48l111.28-63.77Z"/><path class="cls-6" d="M1091.55,716.4c-6.91,1.48-5.83,11.84-.74,19.44l-9,5.82,64.14,45,12.51,2.68a28.53,28.53,0,0,0,33.35-22.71h0l2.46-12.93a5.33,5.33,0,0,0-4.24-6.23c-11,1-56.67-1.49-67.24-5.41C1110.67,737.79,1098.63,730,1091.55,716.4Z"/><line class="cls-24" x1="1064.36" y1="740.27" x2="976.02" y2="794.73"/><circle class="cls-20" cx="1226.7" cy="666.94" r="7.98"/><circle class="cls-20" cx="1152.35" cy="666.9" r="7.98"/><path class="cls-29" d="M1237.94,631a14.6,14.6,0,0,1-14.6,14.59"/><path class="cls-29" d="M1141.06,631a14.59,14.59,0,0,0,14.59,14.59"/><path class="cls-29" d="M1160,719.05c16.32-16.32,59.1,0,59.1,0"/><line class="cls-11" x1="1052.05" y1="855.2" x2="1344.58" y2="855.2"/><polygon class="cls-3" points="1108.33 328.36 971.62 328.36 940.92 409.75 1139.02 409.75 1108.33 328.36"/><path class="cls-25" d="M1069,21.61S1055.43-.61,1030.07,17,993,29.47,983.45,47.22c-10.65,19.83,2.42,36.23-3.38,48.31s-22.22,11.69-28.26,26.65c-4.38,10.85-.48,22.14-6,32.76s-16.19,7-17.88,17.39,202.65,0,202.65,0-16.19-15-10.39-27.35,15.7-23.76.72-40c-12.09-13.15-19.08-18.84-18.83-34.78s-1.21-26.93-5.8-33.33A36.42,36.42,0,0,0,1069,21.61Z"/><path class="cls-25" d="M1069.06,25.6S1054.93,1.5,1067.37.08c13.42-1.54,5.32,19.77,5.32,19.77s8.71-8.79,12.06-1.88C1089,26.63,1069.06,25.6,1069.06,25.6Z"/><path class="cls-3" d="M1111.88,328.36H971.62S912.69,161.62,941.52,145c29.56-17.06,179.85-15.61,200.47,0C1161,159.39,1111.88,328.36,1111.88,328.36Z"/><g class="cls-30"><path class="cls-6" d="M1006.59,132.86l34.11-7,36.21,7s7,38.81-35.16,38.81S1006.59,132.86,1006.59,132.86Z"/></g><path class="cls-3" d="M941.52,145s-63,25.42-63,114.3c0,110.14,102.73,143.31,102.73,143.31l9-30.07S927,308.69,955.74,231.33Z"/><polygon class="cls-6" points="1064.67 144.98 1018.84 144.98 1024.04 126.28 1059.46 126.28 1064.67 144.98"/><ellipse class="cls-6" cx="1077.78" cy="90.15" rx="12.73" ry="9.62" transform="matrix(0.31, -0.95, 0.95, 0.31, 659.16, 1087.39)"/><circle class="cls-6" cx="1041.75" cy="73.19" r="36.35"/><path class="cls-6" d="M1038.61,134.31c-28.78,0-33-56.89-33-56.89h72.2s-4.79,55.84-33,56.87Z"/><ellipse class="cls-6" cx="1005.49" cy="90.12" rx="9.62" ry="12.73" transform="translate(21.32 314.95) rotate(-17.99)"/><path class="cls-31" d="M1051.42,115.14c0,4.09-4.33,7.4-9.67,7.4s-9.67-3.31-9.67-7.4"/><path class="cls-25" d="M1013.64,81.85s-.48,12.46-3.74,12.45c-5.33,0-1.33-9.51-6.64-11.76S1009.37,72.93,1013.64,81.85Z"/><path class="cls-25" d="M1071.8,59.9a40.21,40.21,0,0,1,.87,18.28,33.3,33.3,0,0,0-.13,11.44c.44,2.52,1.12,4.68,2.18,4.68,4.17,0,1.28-11,5.43-13.3.36-.2,1.57-5.56,1.57-5.56S1070,53.79,1071.8,59.9Z"/><path class="cls-7" d="M1024.48,94.91a5.73,5.73,0,0,1,11.45,0"/><path class="cls-7" d="M1049.25,94.91a5.72,5.72,0,0,1,11.44,0v0"/><path class="cls-3" d="M1142,145s63,25.42,63,114.3c0,110.14-102.73,143.31-102.73,143.31l-9-30.07s63.27-63.83,34.51-141.19Z"/><circle class="cls-32" cx="1041.75" cy="285.12" r="101.44" transform="translate(103.51 820.14) rotate(-45)"/><path class="cls-5" d="M1002.73,241.88c15.51-6.18,30.08.23,39.3,12.93,9.62-12.39,24.39-18.32,39.69-11.64,19.22,8.39,22.94,28.56,14.55,47.78-6,13.87-32.43,39.7-46.66,53a13,13,0,0,1-18.07-.29c-13.79-13.78-39.31-40.46-44.91-54.51C978.87,269.68,983.25,249.64,1002.73,241.88Z"/><path class="cls-33" d="M1051.42,74.53s9.31-4.54,13.25,4"/><path class="cls-33" d="M1037.73,74.53s-9.31-4.54-13.25,4"/><path class="cls-25" d="M1091,88.36s-21,7.74-22-11.8c-.51-10-15.57-19.82-29.15-6.11-11.12,11.23-26.64,23-56.35,19.7,0,0,7-86.64,82.85-49.69C1066.3,40.46,1100.38,45.61,1091,88.36Z"/><line class="cls-11" x1="895.49" y1="407.5" x2="1188.02" y2="407.5"/><path class="cls-6" d="M989.21,372.19,980.28,401l33.22,10.31a19.92,19.92,0,0,0,24.92-13.13l2.72-8.77a3.72,3.72,0,0,0-2.45-4.65c-7.74-.16-14.61.66-21.64-2.89l2.33-7.51a8.14,8.14,0,0,0-5.36-10.18l-2.68-.83a2.81,2.81,0,0,0-3.51,1.85l-3.66,11.8Z"/><path class="cls-6" d="M1094.29,372.19l8.93,28.8L1070,411.3a19.92,19.92,0,0,1-24.92-13.13l-2.72-8.77a3.72,3.72,0,0,1,2.45-4.65c7.74-.16,14.61.66,21.64-2.89l-2.33-7.51a8.14,8.14,0,0,1,5.36-10.18l2.68-.83a2.8,2.8,0,0,1,3.51,1.84h0l3.66,11.79Z"/></svg>